<svg xmlns="http://www.w3.org/2000/svg" viewBox="0 0 225.5 153.48"><defs><style>.cls-1,.cls-17,.cls-2{fill:#95d6f1;}.cls-2{font-size:13.74px;}.cls-17,.cls-2{font-family:Futura-Medium, Futura;}.cls-3{letter-spacing:0.01em;}.cls-4{letter-spacing:-0.01em;}.cls-5{letter-spacing:0em;}.cls-6{letter-spacing:0.02em;}.cls-7{letter-spacing:-0.02em;}.cls-8{letter-spacing:-0.02em;}.cls-9{letter-spacing:0.03em;}.cls-10{letter-spacing:0.01em;}.cls-11{letter-spacing:0.04em;}.cls-12{letter-spacing:0.01em;}.cls-13{letter-spacing:-0.02em;}.cls-14{letter-spacing:0.03em;}.cls-15{letter-spacing:0.02em;}.cls-16{fill:#fff;}.cls-17{font-size:13.37px;}.cls-18{letter-spacing:-0.02em;}.cls-19{letter-spacing:-0.01em;}.cls-20{letter-spacing:0.02em;}.cls-21{letter-spacing:0.04em;}.cls-22{letter-spacing:-0.04em;}.cls-23{letter-spacing:0.02em;}.cls-24{letter-spacing:0.02em;}.cls-25{letter-spacing:0.01em;}.cls-26{letter-spacing:-0.01em;}.cls-27{letter-spacing:0em;}.cls-28{letter-spacing:0.01em;}</style></defs><title>10bubble</title><g id="Layer_2" data-name="Layer 2"><g id="Comment_bubble" data-name="Comment bubble"><g id="_10bubble" data-name="10bubble"><path class="cls-1" d="M47.48,32.19c-2.7-35.47,64.76-46.28,73.39-8.5,52.89-35.2,76.63,10.07,71.24,27.49,48-2.33,38.85,52.54,6.47,56.39,14.57,37.32-55.72,48-62.13,16.61.61,46.5-74.94,31.58-66.3-2.67C28.06,165.19,3.23,112,21,94.42-11.34,80.68-9.18,15.52,47.48,32.19Z"/><text class="cls-2" transform="translate(23.79 51.04) scale(0.95 1)">Be<tspan class="cls-3" x="15.72" y="0">f</tspan><tspan x="19.97" y="0">o</tspan><tspan class="cls-4" x="28.23" y="0">r</tspan><tspan class="cls-5" x="33.27" y="0">e </tspan><tspan class="cls-6" x="45.11" y="0">t</tspan><tspan x="49.15" y="0">he </tspan><tspan class="cls-7" x="68.52" y="0">e</tspan><tspan class="cls-8" x="75.86" y="0">x</tspan><tspan class="cls-9" x="83.25" y="0">c</tspan><tspan x="90.15" y="0">hanging of </tspan><tspan class="cls-9" x="0" y="16.49">c</tspan><tspan x="6.9" y="16.49">hocola</tspan><tspan class="cls-10" x="49.16" y="16.49">t</tspan><tspan x="53.04" y="16.49">e eggs,gi</tspan><tspan class="cls-11" x="110.39" y="16.49">f</tspan><tspan x="114.96" y="16.49">ts consis</tspan><tspan class="cls-12" x="165.44" y="16.49">t</tspan><tspan class="cls-5" x="169.32" y="16.49">ed</tspan><tspan x="0" y="32.97">of deco</tspan><tspan class="cls-4" x="47.22" y="32.97">r</tspan><tspan x="52.26" y="32.97">a</tspan><tspan class="cls-12" x="60.5" y="32.97">t</tspan><tspan class="cls-5" x="64.38" y="32.97">ed </tspan><tspan class="cls-9" x="84.46" y="32.97">c</tspan><tspan x="91.36" y="32.97">hi</tspan><tspan class="cls-9" x="102.32" y="32.97">c</tspan><tspan class="cls-13" x="109.22" y="32.97">k</tspan><tspan x="115.84" y="32.97">en eggs and </tspan><tspan x="0" y="49.46">stu</tspan><tspan class="cls-14" x="16.82" y="49.46">f</tspan><tspan class="cls-15" x="21.35" y="49.46">f</tspan><tspan class="cls-5" x="25.64" y="49.46">ed holl</tspan><tspan class="cls-7" x="68.35" y="49.46">o</tspan><tspan x="76.35" y="49.46">w ca</tspan><tspan class="cls-4" x="106.01" y="49.46">r</tspan><tspan x="111.05" y="49.46">dboa</tspan><tspan class="cls-4" x="144.02" y="49.46">r</tspan><tspan class="cls-5" x="149.07" y="49.46">d eggs.</tspan></text><path class="cls-16" d="M47,35.05C44.39.53,109.76-10,118.12,26.78c51.24-34.26,74.25,9.8,69,26.75,46.54-2.27,37.65,51.13,6.28,54.87,14.11,36.31-54,46.75-60.2,16.17C133.81,169.81,60.6,155.3,69,122c-40.78,42.5-64.84-9.26-47.58-26.37C-10,82.23-7.89,18.83,47,35.05Z"/><text class="cls-17" transform="translate(23.05 60.39) scale(0.95 1)">Ma<tspan class="cls-18" x="20.87" y="0">n</tspan><tspan x="27.98" y="0">y pagan t</tspan><tspan class="cls-19" x="86.54" y="0">r</tspan><tspan x="91.45" y="0">aditions used </tspan><tspan x="0" y="16.04">eggs as symbols of </tspan><tspan class="cls-20" x="118.84" y="16.04">f</tspan><tspan x="123.02" y="16.04">e</tspan><tspan class="cls-21" x="130.41" y="16.04">r</tspan><tspan x="135.89" y="16.04">tilit</tspan><tspan class="cls-22" x="153.19" y="16.04">y</tspan><tspan x="159.88" y="16.04">, and</tspan><tspan class="cls-23" x="0" y="32.08">t</tspan><tspan x="3.92" y="32.08">he Ch</tspan><tspan class="cls-24" x="39.47" y="32.08">r</tspan><tspan x="44.68" y="32.08">istian t</tspan><tspan class="cls-19" x="83.54" y="32.08">r</tspan><tspan x="88.45" y="32.08">adition of Eas</tspan><tspan class="cls-25" x="171.42" y="32.08">t</tspan><tspan x="175.19" y="32.08">er </tspan><tspan x="0" y="48.13">eggs has its </tspan><tspan class="cls-26" x="74.38" y="48.13">r</tspan><tspan class="cls-27" x="79.27" y="48.13">o</tspan><tspan class="cls-28" x="87.3" y="48.13">o</tspan><tspan x="95.42" y="48.13">ts in Lent.</tspan></text></g></g></g></svg>