<svg xmlns="http://www.w3.org/2000/svg" viewBox="0 0 212.09 144.53"><defs><style>.cls-1,.cls-3{fill:#f29988;}.cls-2{fill:#fff;}.cls-3{font-size:13.37px;font-family:Futura-Medium, Futura;}.cls-4{letter-spacing:0.01em;}.cls-5{letter-spacing:0.02em;}.cls-6{letter-spacing:0em;}.cls-7{letter-spacing:-0.01em;}.cls-8{letter-spacing:0.02em;}.cls-9{letter-spacing:-0.09em;}.cls-10{letter-spacing:0.01em;}.cls-11{letter-spacing:0.01em;}.cls-12{letter-spacing:0em;}</style></defs><title>1bubble</title><g id="Layer_2" data-name="Layer 2"><g id="Comment_bubble" data-name="Comment bubble"><g id="_1bubble" data-name="1bubble"><path class="cls-1" d="M44.66,30.31c-2.54-33.4,60.9-43.58,69-8,49.74-33.15,72.07,9.48,67,25.89,45.17-2.2,36.54,49.48,6.09,53.09,13.7,35.15-52.41,45.25-58.43,15.65.57,43.79-70.49,29.74-62.37-2.51-39.58,41.13-62.93-9-46.18-25.52C-10.66,76-8.63,14.62,44.66,30.31Z"/><path class="cls-2" d="M43.89,31.89C41.43-.5,103-10.37,110.83,24.14c48.23-32.15,69.89,9.19,65,25.1,43.8-2.13,35.43,48,5.9,51.49C195,134.81,130.88,144.61,125,115.9c.55,42.46-68.35,28.85-60.48-2.43-38.39,39.88-61-8.69-44.79-24.75C-9.76,76.18-7.79,16.67,43.89,31.89Z"/><text class="cls-3" transform="translate(28.64 62.66) scale(0.95 1)">On Eas<tspan class="cls-4" x="44.4" y="0">t</tspan><tspan x="48.17" y="0">er Ame</tspan><tspan class="cls-5" x="92.57" y="0">r</tspan><tspan class="cls-6" x="97.77" y="0">icans will </tspan><tspan x="0" y="16.04">consume mo</tspan><tspan class="cls-7" x="75.15" y="16.04">r</tspan><tspan x="80.06" y="16.04">e </tspan><tspan class="cls-8" x="91.58" y="16.04">t</tspan><tspan x="95.51" y="16.04">han </tspan><tspan class="cls-9" x="122.31" y="16.04">1</tspan><tspan x="129.39" y="16.04">6 </tspan><tspan x="0" y="32.08">million jel</tspan><tspan class="cls-4" x="57.44" y="32.08">l</tspan><tspan x="60.88" y="32.08">y beans </tspan><tspan class="cls-10" x="112.58" y="32.08">t</tspan><tspan class="cls-11" x="116.33" y="32.08">o</tspan><tspan class="cls-4" x="124.44" y="32.08">t</tspan><tspan class="cls-12" x="128.22" y="32.08">al.</tspan></text></g></g></g></svg>