<svg xmlns="http://www.w3.org/2000/svg" viewBox="0 0 212.09 144.53"><defs><style>.cls-1,.cls-3{fill:#f29988;}.cls-2{fill:#fff;}.cls-3{font-size:13.37px;font-family:Futura-Medium, Futura;}.cls-4{letter-spacing:-0.01em;}.cls-5{letter-spacing:-0.02em;}.cls-6{letter-spacing:0em;}.cls-7{letter-spacing:0.01em;}.cls-8{letter-spacing:0.03em;}.cls-9{letter-spacing:-0.01em;}.cls-10{letter-spacing:-0.05em;}.cls-11{letter-spacing:0em;}</style></defs><title>2bubble</title><g id="Layer_2" data-name="Layer 2"><g id="Comment_bubble" data-name="Comment bubble"><g id="_2bubble" data-name="2bubble"><path class="cls-1" d="M44.66,30.31c-2.54-33.4,60.9-43.58,69-8,49.74-33.15,72.07,9.48,67,25.89,45.17-2.2,36.54,49.48,6.09,53.09,13.7,35.15-52.41,45.25-58.43,15.65.57,43.79-70.49,29.74-62.37-2.51-39.58,41.13-62.93-9-46.18-25.52C-10.66,76-8.63,14.62,44.66,30.31Z"/><path class="cls-2" d="M43.89,31.89C41.43-.5,103-10.37,110.83,24.14c48.23-32.15,69.89,9.19,65,25.1,43.8-2.13,35.43,48,5.9,51.49C195,134.81,130.88,144.61,125,115.9c.55,42.46-68.35,28.85-60.48-2.43-38.39,39.88-61-8.69-44.79-24.75C-9.76,76.18-7.79,16.67,43.89,31.89Z"/><text class="cls-3" transform="translate(25.88 63.45) scale(0.95 1)">App<tspan class="cls-4" x="25.93" y="0">r</tspan><tspan class="cls-5" x="30.82" y="0">o</tspan><tspan class="cls-6" x="38.53" y="0">xima</tspan><tspan class="cls-7" x="67.91" y="0">t</tspan><tspan x="71.69" y="0">e</tspan><tspan class="cls-7" x="79.08" y="0">l</tspan><tspan x="82.53" y="0">y 90 million </tspan><tspan class="cls-8" x="10.06" y="16.04">c</tspan><tspan class="cls-6" x="16.78" y="16.04">hocola</tspan><tspan class="cls-7" x="57.89" y="16.04">t</tspan><tspan x="61.67" y="16.04">e bunnies a</tspan><tspan class="cls-9" x="131.44" y="16.04">r</tspan><tspan x="136.35" y="16.04">e </tspan><tspan x="36.31" y="32.08">sold at Eas</tspan><tspan class="cls-7" x="102.04" y="32.08">t</tspan><tspan x="105.81" y="32.08">e</tspan><tspan class="cls-10" x="113.21" y="32.08">r</tspan><tspan class="cls-11" x="117.5" y="32.08">.</tspan></text></g></g></g></svg>