<svg xmlns="http://www.w3.org/2000/svg" viewBox="0 0 231.41 157.7"><defs><style>.cls-1,.cls-3{fill:#f29988;}.cls-2{fill:#fff;}.cls-3{font-size:13.37px;font-family:Futura-Medium, Futura;}.cls-4{letter-spacing:-0.02em;}.cls-5{letter-spacing:0em;}.cls-6{letter-spacing:-0.01em;}.cls-7{letter-spacing:-0.02em;}.cls-8{letter-spacing:0.01em;}.cls-9{letter-spacing:-0.01em;}.cls-10{letter-spacing:0.02em;}.cls-11{letter-spacing:0.01em;}.cls-12{letter-spacing:0.01em;}.cls-13{letter-spacing:-0.02em;}.cls-14{letter-spacing:0em;}.cls-15{letter-spacing:-0.02em;}.cls-16{letter-spacing:0.01em;}.cls-17{letter-spacing:0.01em;}.cls-18{letter-spacing:0.02em;}</style></defs><title>3bubble</title><g id="Layer_2" data-name="Layer 2"><g id="Comment_bubble" data-name="Comment bubble"><g id="_3bubble" data-name="3bubble"><path class="cls-1" d="M48.73,33.07C46-3.37,115.18-14.48,124,24.34c54.27-36.17,78.63,10.35,73.09,28.25,49.29-2.4,39.87,54,6.65,57.93,14.95,38.35-57.18,49.37-63.75,17.07.62,47.78-76.91,32.45-68-2.74C28.79,169.73,3.32,115.08,21.59,97-11.63,82.9-9.42,16,48.73,33.07Z"/><path class="cls-2" d="M47.89,34.8c-2.69-35.34,64.44-46.11,73-8.47,52.63-35.07,76.26,10,70.89,27.4,47.79-2.33,38.66,52.35,6.44,56.18,14.5,37.18-55.45,47.87-61.82,16.55.6,46.33-74.58,31.47-66-2.66-41.88,43.52-66.59-9.48-48.86-27C-10.64,83.12-8.5,18.19,47.89,34.8Z"/><text class="cls-3" transform="translate(22.38 57.33) scale(0.95 1)">Eggs <tspan class="cls-4" x="33.12" y="0">w</tspan><tspan class="cls-5" x="43.26" y="0">e</tspan><tspan class="cls-6" x="50.66" y="0">r</tspan><tspan x="55.56" y="0">e d</tspan><tspan class="cls-7" x="75.1" y="0">y</tspan><tspan x="82.15" y="0">ed </tspan><tspan class="cls-8" x="101.69" y="0">t</tspan><tspan x="105.44" y="0">o </tspan><tspan class="cls-9" x="117.6" y="0">r</tspan><tspan x="122.51" y="0">ep</tspan><tspan class="cls-6" x="137.92" y="0">r</tspan><tspan class="cls-5" x="142.83" y="0">esent </tspan><tspan class="cls-10" x="-8.83" y="16.04">t</tspan><tspan x="-4.91" y="16.04">he blood of Jesus, be</tspan><tspan class="cls-11" x="124.31" y="16.04">f</tspan><tspan x="128.44" y="16.04">o</tspan><tspan class="cls-9" x="136.48" y="16.04">r</tspan><tspan x="141.39" y="16.04">e being</tspan><tspan x="3.83" y="32.08">blessed. </tspan><tspan class="cls-12" x="57.08" y="32.08">N</tspan><tspan class="cls-13" x="68.46" y="32.08">o</tspan><tspan class="cls-14" x="76.24" y="32.08">w </tspan><tspan class="cls-10" x="90.71" y="32.08">t</tspan><tspan class="cls-14" x="94.64" y="32.08">h</tspan><tspan class="cls-15" x="101.97" y="32.08">e</tspan><tspan x="109.13" y="32.08">y&apos;</tspan><tspan class="cls-9" x="119.49" y="32.08">r</tspan><tspan x="124.4" y="32.08">e most</tspan><tspan class="cls-16" x="163.61" y="32.08">l</tspan><tspan x="167.06" y="32.08">y</tspan><tspan x="8.66" y="48.13">just a fun </tspan><tspan class="cls-7" x="67.33" y="48.13">w</tspan><tspan class="cls-17" x="77.46" y="48.13">a</tspan><tspan x="85.59" y="48.13">y </tspan><tspan class="cls-8" x="96.99" y="48.13">t</tspan><tspan x="100.73" y="48.13">o celeb</tspan><tspan class="cls-6" x="145.4" y="48.13">r</tspan><tspan class="cls-5" x="150.31" y="48.13">a</tspan><tspan class="cls-17" x="158.33" y="48.13">t</tspan><tspan x="162.1" y="48.13">e</tspan><tspan x="52.75" y="64.17"> </tspan><tspan class="cls-18" x="56.88" y="64.17">t</tspan><tspan class="cls-14" x="60.8" y="64.17">he season.</tspan></text></g></g></g></svg>