<svg xmlns="http://www.w3.org/2000/svg" viewBox="0 0 227.79 155.31"><defs><style>.cls-1{fill:#afa7d2;}.cls-2{fill:#fff;}.cls-3{font-size:13.37px;fill:#a094c7;font-family:Futura-Medium, Futura;}.cls-4{letter-spacing:0.02em;}.cls-5{letter-spacing:0.03em;}.cls-6{letter-spacing:-0.02em;}.cls-7{letter-spacing:0.01em;}.cls-8{letter-spacing:-0.01em;}.cls-9{letter-spacing:0em;}.cls-10{letter-spacing:0.02em;}.cls-11{letter-spacing:-0.02em;}.cls-12{letter-spacing:0.02em;}.cls-13{letter-spacing:-0.02em;}.cls-14{letter-spacing:-0.01em;}.cls-15{letter-spacing:0.03em;}.cls-16{letter-spacing:0em;}.cls-17{letter-spacing:-0.01em;}.cls-18{letter-spacing:0.02em;}.cls-19{letter-spacing:0.01em;}.cls-20{letter-spacing:0.04em;}.cls-21{letter-spacing:-0.06em;}</style></defs><title>4bubble</title><g id="Layer_2" data-name="Layer 2"><g id="Comment_bubble" data-name="Comment bubble"><g id="_4bubble" data-name="4bubble"><path class="cls-1" d="M48,32.57C45.26-3.32,113.43-14.26,122.16,24c53.44-35.62,77.44,10.19,72,27.82,48.46-2.35,39.06,53.19,6.54,57.06,14.73,37.76-56.31,48.62-62.79,16.81.62,47.05-75.73,32-67-2.7-42.54,44.2-67.62-9.63-49.63-27.42C-11.46,81.64-9.28,15.71,48,32.57Z"/><path class="cls-2" d="M48.55,34.74C45.9-.08,112-10.68,120.5,26.4c51.84-34.55,75.12,9.89,69.83,27,47.08-2.29,38.09,51.57,6.34,55.34,14.29,36.63-54.62,47.16-60.9,16.31.6,45.64-73.47,31-65-2.62-41.27,42.87-65.6-9.34-48.14-26.6C-9.11,82.34-7,18.38,48.55,34.74Z"/><text class="cls-3" transform="translate(30.45 54.8) scale(0.95 1)">The <tspan class="cls-4" x="25.3" y="0">f</tspan><tspan x="29.49" y="0">lu</tspan><tspan class="cls-5" x="40.1" y="0">f</tspan><tspan x="44.51" y="0">fy bun</tspan><tspan class="cls-6" x="82.5" y="0">n</tspan><tspan x="89.62" y="0">y s</tspan><tspan class="cls-7" x="106.43" y="0">t</tspan><tspan x="110.21" y="0">ems f</tspan><tspan class="cls-8" x="141.7" y="0">r</tspan><tspan class="cls-9" x="146.58" y="0">om </tspan><tspan class="cls-10" x="0" y="16.04">t</tspan><tspan x="3.92" y="16.04">he Anglo-Sa</tspan><tspan class="cls-11" x="78.1" y="16.04">x</tspan><tspan x="85.29" y="16.04">on </tspan><tspan class="cls-12" x="104.78" y="16.04">f</tspan><tspan x="108.95" y="16.04">esti</tspan><tspan class="cls-13" x="128.76" y="16.04">v</tspan><tspan x="135.25" y="16.04">al of </tspan><tspan x="0" y="32.08">East</tspan><tspan class="cls-14" x="24.66" y="32.08">r</tspan><tspan class="cls-9" x="29.56" y="32.08">e whi</tspan><tspan class="cls-15" x="62.09" y="32.08">c</tspan><tspan class="cls-16" x="68.81" y="32.08">h </tspan><tspan class="cls-12" x="80.27" y="32.08">f</tspan><tspan x="84.44" y="32.08">eatu</tspan><tspan class="cls-17" x="110.79" y="32.08">r</tspan><tspan x="115.7" y="32.08">ed a sp</tspan><tspan class="cls-18" x="160.82" y="32.08">r</tspan><tspan x="166.02" y="32.08">ing </tspan><tspan x="0" y="48.13">goddess who used </tspan><tspan class="cls-10" x="116.53" y="48.13">t</tspan><tspan x="120.45" y="48.13">he </tspan><tspan class="cls-14" x="139.3" y="48.13">r</tspan><tspan class="cls-9" x="144.21" y="48.13">abbit </tspan><tspan class="cls-19" x="0" y="64.17">t</tspan><tspan class="cls-9" x="3.75" y="64.17">o </tspan><tspan class="cls-17" x="15.91" y="64.17">r</tspan><tspan x="20.82" y="64.17">ep</tspan><tspan class="cls-14" x="36.23" y="64.17">r</tspan><tspan x="41.14" y="64.17">esent </tspan><tspan class="cls-12" x="76.47" y="64.17">f</tspan><tspan x="80.64" y="64.17">e</tspan><tspan class="cls-20" x="88.03" y="64.17">r</tspan><tspan x="93.52" y="64.17">tilit</tspan><tspan class="cls-21" x="110.81" y="64.17">y</tspan><tspan class="cls-16" x="117.29" y="64.17">.</tspan></text></g></g></g></svg>