<svg xmlns="http://www.w3.org/2000/svg" viewBox="0 0 227.79 155.31"><defs><style>.cls-1,.cls-3{fill:#bcdc9e;}.cls-2{fill:#fff;}.cls-3{font-size:13.37px;font-family:Futura-Medium, Futura;}.cls-4{letter-spacing:0.01em;}.cls-5{letter-spacing:-0.02em;}.cls-6{letter-spacing:0.04em;}.cls-7{letter-spacing:0.02em;}.cls-8{letter-spacing:-0.04em;}.cls-9{letter-spacing:0.01em;}.cls-10{letter-spacing:0em;}.cls-11{letter-spacing:-0.01em;}.cls-12{letter-spacing:0.03em;}.cls-13{letter-spacing:-0.02em;}.cls-14{letter-spacing:0.02em;}</style></defs><title>5bubble</title><g id="Layer_2" data-name="Layer 2"><g id="Comment_bubble" data-name="Comment bubble"><g id="_5bubble" data-name="5bubble"><path class="cls-1" d="M48,32.57C45.26-3.32,113.43-14.26,122.16,24c53.44-35.62,77.44,10.19,72,27.82,48.46-2.35,39.06,53.19,6.54,57.06,14.73,37.76-56.31,48.62-62.79,16.81.62,47.05-75.73,32-67-2.7-42.54,44.2-67.62-9.63-49.63-27.42C-11.46,81.64-9.28,15.71,48,32.57Z"/><path class="cls-2" d="M48.55,34.74C45.9-.08,112-10.68,120.5,26.4c51.84-34.55,75.12,9.89,69.83,27,47.08-2.29,38.09,51.57,6.34,55.34,14.29,36.63-54.62,47.16-60.9,16.31.6,45.64-73.47,31-65-2.62-41.27,42.87-65.6-9.34-48.14-26.6C-9.11,82.34-7,18.38,48.55,34.74Z"/><text class="cls-3" transform="translate(29.45 60.8) scale(0.95 1)">Eas<tspan class="cls-4" x="21" y="0">t</tspan><tspan x="24.77" y="0">er </tspan><tspan class="cls-5" x="41.29" y="0">w</tspan><tspan x="51.43" y="0">as named a</tspan><tspan class="cls-6" x="122.47" y="0">f</tspan><tspan class="cls-4" x="126.92" y="0">t</tspan><tspan x="130.69" y="0">er </tspan><tspan class="cls-7" x="147.21" y="0">t</tspan><tspan x="151.14" y="0">he </tspan><tspan class="cls-8" x="0" y="16.04">T</tspan><tspan x="5.9" y="16.04">eu</tspan><tspan class="cls-9" x="20.58" y="16.04">t</tspan><tspan class="cls-10" x="24.33" y="16.04">onic goddess Eost</tspan><tspan class="cls-11" x="132.64" y="16.04">r</tspan><tspan x="137.55" y="16.04">e: Eostur</tspan><tspan x="0" y="32.08">-mon</tspan><tspan class="cls-7" x="28.85" y="32.08">t</tspan><tspan x="32.78" y="32.08">h, whi</tspan><tspan class="cls-12" x="69.36" y="32.08">c</tspan><tspan x="76.08" y="32.08">h has gi</tspan><tspan class="cls-13" x="123.77" y="32.08">v</tspan><tspan x="130.25" y="32.08">en its</tspan><tspan x="0" y="48.13" xml:space="preserve"> name </tspan><tspan class="cls-9" x="41.57" y="48.13">t</tspan><tspan x="45.32" y="48.13">o </tspan><tspan class="cls-7" x="57.48" y="48.13">t</tspan><tspan x="61.4" y="48.13">he </tspan><tspan class="cls-14" x="80.25" y="48.13">f</tspan><tspan x="84.42" y="48.13">esti</tspan><tspan class="cls-13" x="104.23" y="48.13">v</tspan><tspan x="110.72" y="48.13">al..</tspan></text></g></g></g></svg>