<svg xmlns="http://www.w3.org/2000/svg" viewBox="0 0 241.24 161.47"><defs><style>.cls-1,.cls-3{fill:#bcdc9e;}.cls-2{fill:#fff;}.cls-3{font-size:13.37px;font-family:Futura-Medium, Futura;}.cls-4{letter-spacing:0.03em;}.cls-5{letter-spacing:0.02em;}.cls-6{letter-spacing:-0.08em;}.cls-7{letter-spacing:0.01em;}.cls-8{letter-spacing:-0.02em;}.cls-9{letter-spacing:-0.07em;}.cls-10{letter-spacing:0em;}.cls-11{letter-spacing:0.02em;}.cls-12{letter-spacing:0.03em;}.cls-13{letter-spacing:-0.02em;}.cls-14{letter-spacing:0em;}.cls-15{letter-spacing:-0.02em;}.cls-16{letter-spacing:0.01em;}.cls-17{letter-spacing:0.02em;}.cls-18{letter-spacing:0.01em;}.cls-19{letter-spacing:0.01em;}.cls-20{letter-spacing:-0.02em;}.cls-21{letter-spacing:0.02em;}.cls-22{letter-spacing:0.01em;}.cls-23{letter-spacing:-0.01em;}.cls-24{letter-spacing:-0.02em;}.cls-25{letter-spacing:-0.05em;}</style></defs><title>6bubble</title><g id="Layer_2" data-name="Layer 2"><g id="Comment_bubble" data-name="Comment bubble"><g id="_6bubble" data-name="6bubble"><path class="cls-1" d="M50.82,34.49c-2.89-38,69.31-49.59,78.55-9.1,56.6-37.73,82,2.79,76.24,21.46,51.32-2.5,41.36,56.33,6.93,60.42,15.59,40-59.64,56.49-66.5,22.81.66,49.82-80.2,33.84-71-2.86C30,174,3.46,112,22.52,93.18-12.13,78.46-9.82,16.63,50.82,34.49Z"/><path class="cls-2" d="M51.41,36.79c-2.8-36.87,67.23-48.1,76.2-8.83,54.9-36.6,79.55,2.47,74,20.58,49.86-2.43,40.34,54.61,6.72,58.61,15.13,38.79-57.84,54.94-64.5,22.27.64,48.33-77.8,32.83-68.83-2.77-43.7,45.4-69.48-14.89-51-33.17C-9.65,79.2-7.41,19.47,51.41,36.79Z"/><text class="cls-3" transform="translate(31.49 60.21) scale(0.95 1)"><tspan xml:space="preserve"> Ba</tspan><tspan class="cls-4" x="20.05" y="0">c</tspan><tspan x="26.76" y="0">k in </tspan><tspan class="cls-5" x="52.33" y="0">t</tspan><tspan x="56.26" y="0">he mid-</tspan><tspan class="cls-6" x="99.94" y="0">1</tspan><tspan x="107.19" y="0">800s in </tspan><tspan class="cls-7" x="156.27" y="0">N</tspan><tspan class="cls-8" x="167.71" y="0">e</tspan><tspan x="174.9" y="0">w</tspan><tspan x="-26.7" y="16.04"> </tspan><tspan class="cls-9" x="-22.58" y="16.04">Y</tspan><tspan class="cls-10" x="-15.46" y="16.04">o</tspan><tspan class="cls-11" x="-7.43" y="16.04">r</tspan><tspan class="cls-12" x="-2.22" y="16.04">k</tspan><tspan x="4.85" y="16.04">, people beli</tspan><tspan class="cls-13" x="81.48" y="16.04">ev</tspan><tspan x="95.14" y="16.04">ed </tspan><tspan class="cls-5" x="114.68" y="16.04">t</tspan><tspan class="cls-14" x="118.6" y="16.04">hat buying n</tspan><tspan class="cls-15" x="194.41" y="16.04">e</tspan><tspan class="cls-14" x="201.61" y="16.04">w</tspan><tspan x="-6.52" y="32.08" xml:space="preserve"> cl</tspan><tspan class="cls-16" x="7.31" y="32.08">o</tspan><tspan class="cls-17" x="15.42" y="32.08">t</tspan><tspan class="cls-14" x="19.35" y="32.08">hes </tspan><tspan class="cls-18" x="43.62" y="32.08">t</tspan><tspan x="47.37" y="32.08">o </tspan><tspan class="cls-8" x="59.53" y="32.08">w</tspan><tspan x="69.67" y="32.08">ear on Eas</tspan><tspan class="cls-19" x="134.7" y="32.08">t</tspan><tspan x="138.48" y="32.08">er </tspan><tspan class="cls-20" x="155" y="32.08">w</tspan><tspan class="cls-10" x="165.1" y="32.08">ould</tspan><tspan x="1.68" y="48.13" xml:space="preserve"> b</tspan><tspan class="cls-21" x="13.83" y="48.13">r</tspan><tspan class="cls-14" x="19.03" y="48.13">ing </tspan><tspan class="cls-5" x="41.82" y="48.13">t</tspan><tspan x="45.74" y="48.13">hem good lu</tspan><tspan class="cls-4" x="122" y="48.13">c</tspan><tspan x="128.71" y="48.13">k </tspan><tspan class="cls-22" x="139.5" y="48.13">f</tspan><tspan x="143.63" y="48.13">or </tspan><tspan class="cls-5" x="160.79" y="48.13">t</tspan><tspan x="164.71" y="48.13">he </tspan><tspan class="cls-23" x="42.92" y="64.17">r</tspan><tspan x="47.83" y="64.17">est of </tspan><tspan class="cls-5" x="84.56" y="64.17">t</tspan><tspan class="cls-14" x="88.48" y="64.17">he </tspan><tspan class="cls-24" x="107.33" y="64.17">y</tspan><tspan class="cls-10" x="114.38" y="64.17">ea</tspan><tspan class="cls-25" x="129.79" y="64.17">r</tspan><tspan x="134.08" y="64.17">. </tspan></text></g></g></g></svg>