<svg xmlns="http://www.w3.org/2000/svg" viewBox="0 0 230.06 155.31"><defs><style>.cls-1,.cls-3{fill:#afa7d2;}.cls-2{fill:#fff;}.cls-3{font-size:12.95px;font-family:Futura-Medium, Futura;}.cls-4{letter-spacing:0.01em;}.cls-5{letter-spacing:0em;}.cls-6{letter-spacing:-0.02em;}.cls-7{letter-spacing:0.02em;}.cls-8{letter-spacing:0.03em;}.cls-9{letter-spacing:-0.02em;}.cls-10{letter-spacing:0.02em;}.cls-11{letter-spacing:-0.05em;}.cls-12{letter-spacing:-0.01em;}.cls-13{letter-spacing:0.04em;}.cls-14{letter-spacing:0.01em;}.cls-15{letter-spacing:0.01em;}.cls-16{letter-spacing:0em;}.cls-17{letter-spacing:-0.02em;}.cls-18{letter-spacing:-0.01em;}.cls-19{letter-spacing:-0.08em;}</style></defs><title>7bubble</title><g id="Layer_2" data-name="Layer 2"><g id="Comment_bubble" data-name="Comment bubble"><g id="_7bubble" data-name="7bubble"><path class="cls-1" d="M50.26,32.57C47.53-3.32,115.7-14.26,124.43,24c53.44-35.62,77.44,10.19,72,27.82,48.46-2.35,39.06,53.19,6.54,57.06,14.72,37.76-56.31,48.62-62.79,16.81.62,47.05-75.73,32-67-2.7-42.54,44.2-67.62-9.63-49.63-27.42C-9.19,81.64-7,15.71,50.26,32.57Z"/><path class="cls-2" d="M50.82,34.74C48.17-.08,114.3-10.68,122.77,26.4c51.84-34.55,75.12,9.89,69.83,27,47.08-2.29,38.09,51.57,6.34,55.34,14.29,36.63-54.62,47.16-60.9,16.31.6,45.64-73.47,31-65-2.62C31.77,165.29.86,109.23,18.32,92-13.43,78.49-4.73,18.38,50.82,34.74Z"/><text class="cls-3" transform="translate(24.62 56.41) scale(0.93 1)">The da<tspan class="cls-4" x="40.05" y="0">t</tspan><tspan class="cls-5" x="43.71" y="0">e of Eas</tspan><tspan class="cls-4" x="90.85" y="0">t</tspan><tspan class="cls-5" x="94.5" y="0">er </tspan><tspan class="cls-6" x="110.51" y="0">v</tspan><tspan x="116.8" y="0">a</tspan><tspan class="cls-7" x="124.57" y="0">r</tspan><tspan x="129.61" y="0">ies ea</tspan><tspan class="cls-8" x="164.19" y="0">c</tspan><tspan class="cls-5" x="170.7" y="0">h </tspan><tspan class="cls-9" x="0" y="15.54">y</tspan><tspan x="6.83" y="15.54">ear as it is based on </tspan><tspan class="cls-10" x="129.48" y="15.54">t</tspan><tspan class="cls-5" x="133.28" y="15.54">he lunar </tspan><tspan x="0" y="31.09">calenda</tspan><tspan class="cls-11" x="46.97" y="31.09">r</tspan><tspan x="51.13" y="31.09">. It is celeb</tspan><tspan class="cls-12" x="114.46" y="31.09">r</tspan><tspan x="119.22" y="31.09">a</tspan><tspan class="cls-4" x="126.98" y="31.09">t</tspan><tspan class="cls-5" x="130.64" y="31.09">ed on </tspan><tspan class="cls-10" x="0" y="46.63">t</tspan><tspan class="cls-5" x="3.8" y="46.63">he Sund</tspan><tspan class="cls-4" x="51.55" y="46.63">a</tspan><tspan x="59.43" y="46.63">y a</tspan><tspan class="cls-13" x="78.24" y="46.63">f</tspan><tspan class="cls-14" x="82.55" y="46.63">t</tspan><tspan x="86.21" y="46.63">er </tspan><tspan class="cls-10" x="102.21" y="46.63">t</tspan><tspan class="cls-5" x="106.02" y="46.63">he full </tspan><tspan x="0" y="62.18">moon </tspan><tspan class="cls-15" x="36.92" y="62.18">f</tspan><tspan class="cls-16" x="40.92" y="62.18">oll</tspan><tspan class="cls-17" x="55.16" y="62.18">o</tspan><tspan class="cls-16" x="62.7" y="62.18">wing Ma</tspan><tspan class="cls-18" x="115.03" y="62.18">r</tspan><tspan class="cls-8" x="119.76" y="62.18">c</tspan><tspan class="cls-5" x="126.27" y="62.18">h </tspan><tspan class="cls-19" x="137.37" y="62.18">2</tspan><tspan class="cls-5" x="144.28" y="62.18">1st</tspan></text></g></g></g></svg>