<svg xmlns="http://www.w3.org/2000/svg" viewBox="0 0 230.06 155.31"><defs><style>.cls-1,.cls-3{fill:#afa7d2;}.cls-2{fill:#fff;}.cls-3{font-size:12.63px;font-family:Futura-Medium, Futura;}.cls-4{letter-spacing:0.02em;}.cls-5{letter-spacing:-0.02em;}.cls-6{letter-spacing:0.02em;}.cls-7{letter-spacing:0.03em;}.cls-8{letter-spacing:0.04em;}.cls-9{letter-spacing:0.01em;}.cls-10{letter-spacing:0.01em;}.cls-11{letter-spacing:0em;}.cls-12{letter-spacing:0.01em;}.cls-13{letter-spacing:-0.01em;}.cls-14{letter-spacing:0.02em;}.cls-15{letter-spacing:0.03em;}.cls-16{letter-spacing:0em;}.cls-17{letter-spacing:0.01em;}.cls-18{letter-spacing:-0.02em;}.cls-19{letter-spacing:0.04em;}</style></defs><title>8bubble</title><g id="Layer_2" data-name="Layer 2"><g id="Comment_bubble" data-name="Comment bubble"><g id="_8bubble" data-name="8bubble"><path class="cls-1" d="M50.26,32.57C47.53-3.32,115.7-14.26,124.43,24c53.44-35.62,77.44,10.19,72,27.82,48.46-2.35,39.06,53.19,6.54,57.06,14.72,37.76-56.31,48.62-62.79,16.81.62,47.05-75.73,32-67-2.7-42.54,44.2-67.62-9.63-49.63-27.42C-9.19,81.64-7,15.71,50.26,32.57Z"/><path class="cls-2" d="M50.82,34.74C48.17-.08,114.3-10.68,122.77,26.4c51.84-34.55,75.12,9.89,69.83,27,47.08-2.29,38.09,51.57,6.34,55.34,14.29,36.63-54.62,47.16-60.9,16.31.6,45.64-73.47,31-65-2.62C31.77,165.29.86,109.23,18.32,92-13.43,78.49-4.73,18.38,50.82,34.74Z"/><text class="cls-3" transform="translate(31.09 55.84) scale(0.93 1)">Du<tspan class="cls-4" x="16.05" y="0">r</tspan><tspan x="20.96" y="0">ing lent people </tspan><tspan class="cls-5" x="110.63" y="0">w</tspan><tspan x="120.17" y="0">ould </tspan><tspan class="cls-6" x="149.26" y="0">f</tspan><tspan x="153.19" y="0">ast</tspan><tspan x="-17.45" y="15.15">whi</tspan><tspan class="cls-7" x="2.39" y="15.15">c</tspan><tspan x="8.73" y="15.15">h o</tspan><tspan class="cls-8" x="27.14" y="15.15">f</tspan><tspan class="cls-9" x="31.34" y="15.15">t</tspan><tspan x="34.91" y="15.15">en led </tspan><tspan class="cls-10" x="74.31" y="15.15">t</tspan><tspan x="77.85" y="15.15">o a su</tspan><tspan class="cls-4" x="112.81" y="15.15">r</tspan><tspan class="cls-11" x="117.72" y="15.15">plus of eggs</tspan><tspan x="-17.71" y="30.3">when Eas</tspan><tspan class="cls-12" x="36.63" y="30.3">t</tspan><tspan x="40.19" y="30.3">er </tspan><tspan class="cls-13" x="55.8" y="30.3">r</tspan><tspan x="60.41" y="30.3">olled a</tspan><tspan class="cls-13" x="100.31" y="30.3">r</tspan><tspan x="104.92" y="30.3">ound, making </tspan><tspan class="cls-14" x="-9.88" y="45.46">t</tspan><tspan x="-6.17" y="45.46">hem </tspan><tspan class="cls-15" x="21.62" y="45.46">c</tspan><tspan class="cls-16" x="27.96" y="45.46">heaper </tspan><tspan class="cls-17" x="72.62" y="45.46">t</tspan><tspan x="76.16" y="45.46">o buy and gi</tspan><tspan class="cls-18" x="149.52" y="45.46">v</tspan><tspan x="155.65" y="45.46">e as</tspan><tspan x="42.9" y="60.61" xml:space="preserve"> an Eas</tspan><tspan class="cls-12" x="85.02" y="60.61">t</tspan><tspan x="88.58" y="60.61">er gi</tspan><tspan class="cls-19" x="114.89" y="60.61">f</tspan><tspan x="119.1" y="60.61">t.</tspan></text></g></g></g></svg>