<svg xmlns="http://www.w3.org/2000/svg" viewBox="0 0 71.45 47.6"><defs><style>.cls-1{fill:#fff;}.cls-2{fill:#e6ebf3;}</style></defs><title>back arrow</title><g id="Layer_2" data-name="Layer 2"><g id="backarrow"><g id="back_arrow" data-name="back arrow"><path class="cls-1" d="M4.94,17.32s4.5-9.47,13.64-7.41c0,0,1.86-12.36,10.38-9.47,0,0,11.6,6.58,3.41,16.88,0,0,11.82-4.94,19.23,0,0,0,11-5.77,18.48,0,0,0,8.69,19.76-17.66,14.41,0,0-15.4,4.94-20.05-1.24,0,0,5.47,9.88,0,15.65s-13.79-7.41-13.79-7.41S8.49,37.9,6.72,27.61C6.72,27.61-7.13,22.67,4.94,17.32Z"/><path class="cls-2" d="M32.67,23S40,16.64,50.33,23C50.33,23,42,13,32.67,23Z"/><path class="cls-2" d="M23.33,5.42s9.34-3.88,9.34,6.82C32.67,12.24,35.67-.06,23.33,5.42Z"/><path class="cls-2" d="M18,14.51s-11.33,2-10,6.38C8,20.89,3.63,11.7,18,14.51Z"/><path class="cls-2" d="M12.69,27.07s-.36,4.49,5.31,7.67C18,34.74,10,35.22,12.69,27.07Z"/><path class="cls-2" d="M23.87,36.67s-.35,4.49,5.31,7.67C29.18,44.34,21.23,44.82,23.87,36.67Z"/><path class="cls-2" d="M55.33,20.89s7-5,12.67-.16C68,20.73,61,11.87,55.33,20.89Z"/></g></g></g></svg>