<svg xmlns="http://www.w3.org/2000/svg" viewBox="0 0 330.46 391.72"><defs><style>.cls-1{fill:#d6ad87;}.cls-2{fill:#fcce96;}.cls-3{fill:#ecc094;}.cls-4{fill:#b1e0e8;}.cls-5{fill:#87d2d8;}.cls-6{fill:#f2b7ca;}.cls-7{fill:#eba4c0;}</style></defs><title>Basket</title><g id="Layer_2" data-name="Layer 2"><g id="Basket"><g id="Basket-2" data-name="Basket"><path class="cls-1" d="M13.51,250.93S9.6,265.15,18,276.26c0,0-3.91,28.49,8.93,46.45,0,0,4.47,30.12,20.66,39.39,0,0-5.59,0,0,6.37s38,23.25,101,23.25,84.85-16.3,84.85-16.3,5.58-7.53,5-12.16c0,0,17.3-13.77,17.86-41.93,0,0,13.4-13.11,9.49-42.65a31.57,31.57,0,0,0,4.46-25.74l4.31-65.79s-107.23,74.23-268-7Z"/><path class="cls-2" d="M16.41,252.54s-3.82,13.7,4.36,24.4c0,0-3.81,27.44,8.73,44.74,0,0,4.36,29,20.17,37.95,0,0-5.45,0,0,6.14s37.08,22.4,98.69,22.4,82.88-15.7,82.88-15.7,5.45-7.26,4.91-11.72c0,0,16.9-13.26,17.45-40.39,0,0,13.08-12.63,9.27-41.09a30.07,30.07,0,0,0,4.36-24.79l12-65.22s-118.32,66.22-275.35-12Z"/><path class="cls-1" d="M20.77,276.94l-.36,4,26.06,9.45c-.94,15.1,6.75,38.09,6.75,38.09-5.53,0-26.2-10.69-26.2-10.69l1.25,3.68c1.23,2.93,26.17,10.36,26.17,10.36-2.66,9,7,29.09,7,29.09-4.9.21-17.78-4.54-17.78-4.54s-.61,1.19,3.06,3.28,21.27,5.24,21.27,5.24c-1.64,2.72,3.88,14,3.88,14l4.71,1.67C74.05,378.47,70,365.91,70,365.91c1.64,2.3,37.62,5.65,37.62,5.65-1.22,1.47,2.58,17.85,2.58,17.85l4.38-.48c-2.25-1.25-4.5-16.74-4.5-16.74l46.82.63c2.05,3.76-1.22,18.83-1.22,18.83l3.41-1.88c1.84-4.4.88-16.95.88-16.95,20,1,45.8-4.4,45.8-4.4.82,9-4.09,16.75-4.09,16.75s2.46-1.05,5.11-6.49A17.48,17.48,0,0,0,208.2,368l25.15-5.86,3.94-2.39-28.06,5.53C215.57,355,216.79,337,216.79,337l38-12.56-1.22-4.11C253,323.08,217,334.1,217,334.1c7.36-14.23,3.27-37.88,3.27-37.88s36.19-5.23,42.78-15.49,2-5.11-3.52-.41-38.65,13.18-38.65,13.18c3.07-7.11,2.73-51.06,2.73-51.06h-6c3.82,1.11,4.91,48,0,51.34s-57.8,6.7-57.8,6.7c3.82-12.28-3.26-46.88-3.26-46.88l-7.1-.56c10.91,10.6,6,47.44,6,47.44l-54.52-2.24c-7.64-5-3.28-44.08-3.28-44.08H93.84c-2.73,37.39,3.81,44.08,3.81,44.08-44.71-3.9-48-11.44-48-11.44-3.27-6.41-3.27-34.88-3.27-34.88L42,251.37C41,258.62,46.4,286.8,46.4,286.8c-8.72-1.39-25.63-9.86-25.63-9.86"/><path class="cls-2" d="M50.52,291.75s-1,32.66,6.94,39.55c0,0,32.26,9.16,42.07,7.94,0,0-5.52-33.71-2.29-37.65C97.24,301.59,54.93,296.45,50.52,291.75Z"/><path class="cls-2" d="M56.62,332.85s34.7,10.67,42.65,8.54c0,0,3.43,24.67,7.11,27.11,0,0-26.69-.05-43.93-7.05C62.45,361.45,63.65,361.91,56.62,332.85Z"/><path class="cls-2" d="M100.38,301.07,156.81,303s2.19,26.23-1.36,38.79c0,0-44.44,0-52.89-1.95C102.56,339.86,96.29,319.77,100.38,301.07Z"/><path class="cls-2" d="M159.07,302.52s3.22,23.43,0,38.5c0,0,51.55-2.93,54.77-6.28s8.45-31.81,3.22-38.5C217.06,296.24,179.39,304.53,159.07,302.52Z"/><path class="cls-2" d="M103.72,341.81s48.25,3.28,52.75,1.33c0,0,.41,23.2-1.22,27.76l-46-1.3S101.06,352.44,103.72,341.81Z"/><path class="cls-2" d="M158.3,342.94v27.12s45.41-.1,48.68-3.87,8.57-29,8.57-29S190.6,341.16,158.3,342.94Z"/><path class="cls-3" d="M20.41,280.91s-.14,4.18,0,7.25l19,5.62s-2.93,18.77,6.61,32.73l7.16,1.94s-5.73-12.9-6.75-38.09Z"/><path class="cls-3" d="M50.5,298.21s37.57,8.49,41.67,8.27c0,0-4.19,24.6,0,31.7l7.36,1.06s-5.18-30.09-2.29-37.65c0,0-39.08-5.11-46.72-9.84Z"/><path class="cls-3" d="M29.67,322.68s16.8,7.24,24.77,9.12c0,0-2.55,5.34,7,29.09a29.8,29.8,0,0,1-6.52-1s-8-23.68-7.18-27L30.5,326.68Z"/><path class="cls-3" d="M47.87,360.18s-1.8.76,0,3.18,16.8,5.14,16.8,5.14l1.14,6.56L71,377s-4-8-3-12.14C67.94,364.87,59.69,363.25,47.87,360.18Z"/><path class="cls-3" d="M56.62,332.85s33.91,10.07,42.65,8.54c0,0,4.52,26.61,7.11,27.11L99,368.23s-6.83-17.81-6.53-21.36c0,0-29.26-5.44-34.77-9.52Z"/><path class="cls-3" d="M70,365.91s4.86,2.57,37.62,5.65c0,0-1.22.42,1.77,14.2l-5.54-.79s-2.41-10.16-2.41-11.16c0,0-24.34-1-30.29-4.56Z"/><path class="cls-3" d="M16.41,252.54l19.43,4.34L36.78,284l9.62,2.83S40.88,257.16,42,251.37L15,243.8Z"/><path class="cls-3" d="M46.4,251.92l47.44,2.24s-2.25,36.27,3.81,44.08l-12.93-1.35L81.5,262.11l-35-4Z"/><path class="cls-3" d="M97.65,254.16l51.8-1.12s11.32,11.09,6,47.44l-13.83-.57s5.86-26.81-.89-34.61c0,0-40.3-5.18-44,0Z"/><path class="cls-3" d="M100.38,301.07,156.81,303s2.53,30.59-1.36,38.79H140.52s5.73-23.82,3.69-27.38L99,308.36S99.09,302.57,100.38,301.07Z"/><path class="cls-3" d="M103.72,341.81s51.12,3,52.75,1.33c0,0,.81,25.89-1.22,27.76l-11.9-.34s3.72-16.92,3.31-19.89l-43.47-2.55A20.54,20.54,0,0,1,103.72,341.81Z"/><path class="cls-3" d="M110.06,372.19l46.82.63s2,8.1-.55,15.35H146.05s3.27-5.73,2.45-9.49l-37.85-2.85Z"/><path class="cls-3" d="M156.55,253.6l61.06-11.16s9.41,30.06,0,51.34c0,0-5.32,3.1-16,2.46,0,0,9.82-19.9,3.48-41.25l-46.84,8.35Z"/><path class="cls-3" d="M159.07,302.52s36.79-.41,58-6.28c0,0,6.91,10.9-3.22,38.5,0,0-10.14,3.89-13.61,2.88,0,0,7.56-21.41,6.13-31.35L160,311.5Z"/><path class="cls-3" d="M158.3,342.94s43.74-3.71,57.25-5.75c0,0-3.87,22.37-8.57,29,0,0-4.36,2-12.7,2.56,0,0,7.18-16.23,7-24l-42.95,4.4Z"/><path class="cls-3" d="M160,372.82s33.62-1.71,45.8-4.4c0,0,.24,10.22-3.71,14.7l-7.36,1.45s2.28-5.93,2.28-8.74L160.16,377Z"/><path class="cls-3" d="M223.61,242.44,267.49,253s7.45,17.89-9.59,28.36c0,0,3.6-17.2.06-21.66L223.45,253Z"/><path class="cls-3" d="M220.27,296.22s36.52-6.7,42.78-15.49c0,0,4.18,26-9.45,39.63L242,325.82s12.92-25.05,12.64-31.19l-33.51,8.65Z"/><path class="cls-3" d="M216.79,337,253.34,325s-2.09,23.46-16.05,34.79l-9.8,1.93s13.46-19.07,15.75-26.6l-27.69,11.35Z"/><path class="cls-3" d="M208.2,368l28-7.25s.49,4.71-4.91,11.72L226.76,375l1.48-7.14-19.79,4.31Z"/><path class="cls-4" d="M.89,176s18.82,40.82,31.91,40.26c0,0,4.91-31.81,0-46.87,0,0-22.9-18.32-24.54-33.16C8.26,136.19.57,146.2.89,176Z"/><path class="cls-2" d="M8.26,136.19S7.66,110.75,18.05,99c0,0,4.39,28.32,16.93,31.81,0,0,1.63,24-2.18,38.51C32.8,169.35,14.8,163.87,8.26,136.19Z"/><path class="cls-4" d="M17.06,100.23S21.48,75.59,31.3,71c0,0,3.68,33.91,10.63,36.84,0,0,1.64,15.48-7,23C35,130.84,24.25,133.3,17.06,100.23Z"/><path class="cls-2" d="M31.3,71S29.66,59.27,53.11,38.2c0,0-1.64,38.64,2.86,39.9,0,0-7.9,27.35-14,29.72C41.93,107.82,33.62,107,31.3,71Z"/><path class="cls-4" d="M53.11,38.2S70.35,12.18,95,11.13c0,0-18.2,17.79-17.17,39,0,0-22.33,24.8-21.85,27.94C56,78.1,50.76,79.77,53.11,38.2Z"/><path class="cls-2" d="M95,11.13s8.49-9.63,32.21-7.85c0,0-15.34,14.44-21.47,28.36,0,0-25.87,20.41-27.91,18.52C77.82,50.16,75.16,30.91,95,11.13Z"/><path class="cls-4" d="M127.2,3.28S148.36-5.4,170,5.48c0,0-14.31.94-31.28,18.52,0,0-20.65,7.85-34.15,8.16C104.6,32.16,115,10.08,127.2,3.28Z"/><path class="cls-2" d="M170,5.48s16.05-4.39,36.91,13.08c0,0-20.24-1-34.05,11.41,0,0-30.56-1.68-34.14-6C138.75,24,150.71,6.53,170,5.48Z"/><path class="cls-4" d="M206.94,18.56s22.9,7.43,28.73,26.16c0,0-18.2-6.17-38.75-3,0,0-22.18-7.85-24-11.72C172.89,30,183.73,18,206.94,18.56Z"/><path class="cls-2" d="M196.92,41.69s24.84,27,26.58,27.62c0,0,24.13,7.74,37.93,22.6,0,0-6.75-36.31-25.76-47.19C235.67,44.72,211.64,35.72,196.92,41.69Z"/><path class="cls-4" d="M223.5,69.31s13.36,36,16.22,37.39c0,0,22.09,10,31.08,22.15,0,0,2.39-25.08-9.37-36.94S242.59,75.31,223.5,69.31Z"/><path class="cls-2" d="M239.72,106.7s2.73,36.21,10.91,42.28c0,0,22.15,2.58,25.73,8.65,0,0-2.83-26.58-5.56-28.78C270.8,128.85,260.54,109.88,239.72,106.7Z"/><path class="cls-4" d="M250.63,149s-2.8,34.6.88,49.25c0,0,26.6-13.87,29.67-18.06,0,0-1.72-19.82-4.82-22.54C276.36,157.63,273.67,148.07,250.63,149Z"/><path class="cls-4" d="M.32,174.87s-1.9,10.88,3.55,18.83C7.28,276.57,15.45,269.46,20,230.53c9.41,52.74,46.62,63.21,52.76,2.93,11.45,54.83,56,78.06,70,5,10.17,70.31,77.24,51.9,66.6-13,15.13,70.74,59.71,51.9,50.71-2.93,9,65.71,26.17,32.23,18.81-32.23a9.27,9.27,0,0,0,1.79-11.61S200.3,229.68.32,174.87Z"/><path class="cls-5" d="M6.6,176.21s24.94,9.71,28.18,5.13c0,0,.22-8.82-2-12C32.8,169.35,36.58,182.28,6.6,176.21Z"/><path class="cls-5" d="M24.18,225.89s5.32,36.34,24.54,43.49c0,0,11.86.42,15.54-21.74,0,0-5.45,17.5-13.78,17.66S29.91,247.24,24.18,225.89Z"/><path class="cls-5" d="M257.38,226.16s2.05,30.55-12.92,40.14c0,0-10,2.67-17.07-14.6,0,0,7.77,13.14,14.84,11.63S256.38,244.62,257.38,226.16Z"/><path class="cls-5" d="M83.15,235.1s5.32,36.33,24.54,43.49c0,0,19.12,1.4,26.14-21.63,0,0-13,19.8-24.38,17.55C101.27,272.89,88.88,256.45,83.15,235.1Z"/><path class="cls-5" d="M208.55,233.65s-5.46,36.34-25.19,43.49c0,0-19.63,1.41-26.84-21.62,0,0,13.36,19.79,25,17.54C190,271.45,202.67,255,208.55,233.65Z"/><path class="cls-5" d="M18.05,231.33S12.87,250,9.73,249.47l3,6.78S19.27,242.21,18.05,231.33Z"/><path class="cls-5" d="M266.51,230s7.06,18.69,11.34,18.14l-4.05,6.77S264.83,240.86,266.51,230Z"/><path class="cls-5" d="M20.69,113.44s17.23,23.61,21.24-5.62c0,0,2.46,16.52-7,23C35,130.84,26.92,131.61,20.69,113.44Z"/><path class="cls-5" d="M52.5,55.57s7.16,20.28,26.1-15.93l-.78,10.52S57.57,73,56,78.1C56,78.1,51.65,75.94,52.5,55.57Z"/><path class="cls-5" d="M104.6,32.16S130.2,30,138.75,24l8.15-8.66s-27.12,19.59-29.81-3C117.09,12.36,107.42,25.17,104.6,32.16Z"/><path class="cls-5" d="M172.89,30s2.42-5.27,19.37-9.95c0,0-7.92,20.64,18.28,19.62,0,0-10,.07-13.62,2C196.92,41.69,174.94,34.8,172.89,30Z"/><path class="cls-5" d="M218.8,24.41s12.36,11.37,8.14,17.69l8.73,2.62S231.28,28.72,218.8,24.41Z"/><path class="cls-5" d="M223.5,69.31s13.4,36.85,16.22,37.39,13.59,4.62,15.58,6c0,0-24.69-23.83-26.12-41.27Z"/><path class="cls-5" d="M258,88.59s11.93,28.6,7.36,32.85l5.4,7.41S274.05,98.85,258,88.59Z"/><path class="cls-5" d="M257.47,188.38s23-8.4,10.53-37.4c0,0,7.8,2.82,9.39,8.24s3.79,20.95,3.79,20.95S262.86,188.62,257.47,188.38Z"/><path class="cls-3" d="M11.54,146.41s20.68,19.31,18-16.52l5.42,1S37.6,162,32.8,169.35A36.38,36.38,0,0,1,11.54,146.41Z"/><path class="cls-3" d="M32.15,80.71s9,40.75,21.21-6.09L56,78.1s-7.73,28.78-14,29.72S32.15,80.71,32.15,80.71Z"/><path class="cls-3" d="M81.37,31.63s-.57,21.93,35.72-19.27c0,0-11.65,16.52-11.36,19.28s-27,20.26-27.91,18.52S79.75,34.16,81.37,31.63Z"/><path class="cls-3" d="M153.84,10.46s-13.35,17.26,28,13.19c0,0-9.76,5.18-9,6.32s-32.31-2.87-34.14-6S153.84,10.46,153.84,10.46Z"/><path class="cls-3" d="M212.13,41.69s43,11,43.17,44.34l6.13,5.88s-5-42.42-25.76-47.19-28.73-4.94-28.73-4.94Z"/><path class="cls-3" d="M253.28,111.63S281,136,265.4,150.19c0,0,9.28,3.24,11,7.44,0,0-2.45-26.67-5.56-28.78C270.8,128.85,258.7,111.34,253.28,111.63Z"/><path class="cls-5" d="M21.56,194.74s37.25,18.07,123.56,19.19,114.51-16.67,114.51-16.67-60,14.51-115.52,11.64A963.49,963.49,0,0,1,21.56,194.74Z"/><path class="cls-6" d="M321.93,171.87c11.51-21.83,7.55-32.55,0-34.22s-47.2,26.21-47.2,26.21v0c-7.44-8.09-20.69,2.83-20.69,2.83s-34.93-23-58.34-19.06c0,0-13.1,5.6,0,30.59,0,0-8.47,19.43-5.83,25.38,2.47,5.55,6.09,25.68,56.92-5.15-7.35,12.78-31.4,57.2-30.06,88.51l8.37-6.7,23.78,19.8s-1.28-92.18,16.73-106.5c3,8.17,20.71,57.85,17.81,98.16,0,0,6.74-2.78,11.11-22.63,0,0,11.91,10.33,13.89,22.63,0,0,8.72,6,0-39.3-4.57-23.76-13.62-40.72-21.2-51.48a60.74,60.74,0,0,0,30.33,9.81C343.76,193.7,321.93,171.87,321.93,171.87Z"/><path class="cls-7" d="M255.41,188.1s3.75,6.19,10.21,5.48,16.39-2.7,12-23C277.64,170.63,278.72,196.83,255.41,188.1Z"/><path class="cls-7" d="M278.72,161.11s5.84,23.22,0,31.85l8.51,8s23.42,12.23,30.33,9.81S340,191,321.93,171.87l6.33-16s-23.4,10.36-23.71,14.72,13.58,12.71,12,15.88-4.76,4-10.32,3.57S286.38,193,286.38,193s10.32-8.46,10.32-10.83-7.94-2-7.94-5.54,6.35-7.54,7.94-13.5C296.7,163.09,282.17,171,278.72,161.11Z"/><path class="cls-7" d="M250.25,190.48s-20.34,41.8-21.68,45.15,8.59-8.24,8.59-8.24L232,260.74l15.08-41.91,3.17,24s4.4-43.94,15.37-49.29C265.62,193.58,259.91,200.55,250.25,190.48Z"/><path class="cls-7" d="M265.55,195.56s11.34,1.84,13.17-2.6c0,0,19.59,14.62,25.83,43.87l-14.6-15s8.73,27.39,8.73,31.35-13.23-30.11-13.23-30.11l-6.73,16.27S270.07,197.92,265.55,195.56Z"/><path class="cls-7" d="M254.05,166.71a22.44,22.44,0,0,1-3.8,23.77c-9.84,11.74-47.54,38.45-58.3,17.84,0,0,44-3.5,43.22-17s-6.72-9.17-6.72-9.17l9.1-6.34-10.71-9.08L242.48,160Z"/><path class="cls-7" d="M204.21,168.25s-4.37,13.5-2,22.23c0,0,16.67-9.53,18.26-11.11s3.43-8.74,3.43-8.74Z"/></g></g></g></svg>