<svg xmlns="http://www.w3.org/2000/svg" viewBox="0 0 78.26 97.48"><defs><style>.cls-1{fill:#f89c45;}.cls-2{fill:#f9e573;}.cls-3{fill:#fff;}.cls-4{fill:#231f20;}.cls-5{fill:#f6b57e;}</style></defs><title>birdy</title><g id="Layer_2" data-name="Layer 2"><g id="Chic"><g id="birdy"><path class="cls-1" d="M28.45,79.31V89.72s-5.92,2.55-5.92,7.76h2s1-4.49,4-4.49l.16,4.49H30.8l-.16-4.39s3.58-1.43,4.29,4.39H37s-1.48-7.71-5.92-7.76V79.31Z"/><path class="cls-1" d="M49.41,79.31V89.72s-5.92,2.55-5.92,7.76h2s1-4.49,4-4.49l.15,4.49h2.1l-.17-4.39s3.58-1.43,4.3,4.39H58s-1.48-7.71-5.92-7.76V79.31Z"/><path class="cls-2" d="M42.33,3S5.39,7.47,5,33.18c0,0-.61,12,6.94,18.17,0,0-13.06.41-11.84,13.06H4.37s-1.64,6.53-.61,9.19,11.83-4.29,11.83-4.29S20.7,84.21,40.7,83,61.52,70.33,61.52,70.33s7.14,3.88,11.63,3.47v-9l5.11.61s-1.43-14.28-9.6-14.69c0,0,6.33-10.21,4.49-20.41S66.42,11.14,51.31,5.22c0,0,.41-3.67,5.92-3.27,0,0-4.08-4.89-11.43.82A6.06,6.06,0,0,0,41.22.23S43.83,2.69,42.33,3Z"/><circle class="cls-3" cx="24.81" cy="31.53" r="10"/><circle class="cls-3" cx="54.75" cy="31.53" r="10"/><circle class="cls-4" cx="25.72" cy="32.53" r="6.8"/><circle class="cls-4" cx="53.81" cy="32.53" r="6.8"/><polygon class="cls-1" points="40.24 40.32 46.35 40.32 43.29 45.61 40.24 50.9 37.19 45.61 34.13 40.32 40.24 40.32"/><polyline class="cls-5" points="43.49 40.32 40.24 50.9 46.35 40.32 43.49 40.32"/></g></g></g></svg>