<svg xmlns="http://www.w3.org/2000/svg" viewBox="0 0 809.01 409.64"><defs><style>.cls-1{fill:#e6ebf3;}.cls-2{fill:#f7f0f7;}</style></defs><title>blue cloud</title><g id="Layer_2" data-name="Layer 2"><g id="Clouds_Grass" data-name="Clouds/Grass"><g id="blue_cloud" data-name="blue cloud"><path class="cls-1" d="M0,409.64V39.58S78.61-45.5,164.11,33.82c0,0,27,28.73,0,79.31,0,0,121.49-36.78,114,60.92,0,0,87-73.56,141,12.65-10.5-126.45,180-106.9,172.49-9.2,0,0,82.49-67.82,132,20.69,0,0-3.14-114.95,85.43-104.6v316Z"/><path class="cls-2" d="M72,17.33s76.29-9,84.49,73.83C156.44,91.16,163.83,5.85,72,17.33Z"/><path class="cls-2" d="M438.65,161.46S477.25,95,548.42,138.25C548.42,138.25,484.65,81.1,438.65,161.46Z"/><path class="cls-2" d="M199.33,121.28s54.66-6.46,60.54,52.9C259.87,174.18,265.16,113.05,199.33,121.28Z"/><path class="cls-2" d="M641.59,167.05s54.67-6.46,60.55,52.9C702.14,220,707.43,158.82,641.59,167.05Z"/></g></g></g></svg>