<svg xmlns="http://www.w3.org/2000/svg" viewBox="0 0 93.01 72.31"><defs><style>.cls-1{fill:#f199a3;}.cls-2{fill:#f3b5bf;}.cls-3{fill:#b1e0e8;}.cls-4{fill:#efcae0;}.cls-5{fill:#eecd96;}</style></defs><title>Bottom Shell</title><g id="Layer_2" data-name="Layer 2"><g id="Bottom_Shell" data-name="Bottom Shell"><g id="Bottom_Shell-2" data-name="Bottom Shell"><path class="cls-1" d="M91.48,15.24,75.65,0,66.84,17.17,50.75,1,38,16.39,24,1,8.32,16.93,2.08,2.8A95.46,95.46,0,0,0,0,20.81C-.38,52.84,20.1,72,45.65,72.3S92.12,53.94,92.51,21.92a89.85,89.85,0,0,0-.66-11.5Z"/><path class="cls-2" d="M70.83,9.39s-2.72,48.93-20,62.71c0,0,18.62.32,32.61-18.89S92,10.44,92,10.44l-.37,4.82L75.75,0Z"/><polygon class="cls-3" points="0.02 24.76 0 21.82 92.51 21.22 92.44 24.16 0.02 24.76"/><polygon class="cls-3" points="4.41 44.95 3.27 42.01 89.3 41.46 88.19 44.41 4.41 44.95"/><polyline class="cls-4" points="82.2 25.72 89.3 35.5 91.78 31.16 90.44 37.73 89.21 38.73 81.94 29.03"/><polygon class="cls-4" points="64.07 38.73 57.94 29.48 52.21 38.63 45.49 29.47 40.29 38.64 33.58 30.06 27.13 38.49 20.59 30.48 14.03 38.49 8.64 31.3 2.02 38.02 1.41 35.96 8.81 28.45 14.08 35.5 20.59 27.57 27.09 35.51 33.57 27.05 40.07 35.36 45.31 26.13 52.1 35.37 57.9 26.12 63.96 35.27 69.14 26.14 75.55 34.7 82.2 25.72 81.94 29.03 75.77 38.05 69.33 29.46 64.07 38.73"/><circle class="cls-5" cx="15.62" cy="52.78" r="3.38"/><circle class="cls-5" cx="34.98" cy="52.78" r="3.38"/><circle class="cls-5" cx="55.27" cy="52.78" r="3.38"/><circle class="cls-5" cx="72.37" cy="52.39" r="3.38"/></g></g></g></svg>