<svg xmlns="http://www.w3.org/2000/svg" viewBox="0 0 195.08 303.34"><defs><style>.cls-1{fill:#f4dbc5;}.cls-2{fill:#f0b7d4;}.cls-3{fill:#f8f7f9;}.cls-4{fill:#262628;}</style></defs><title>bunny</title><g id="Layer_2" data-name="Layer 2"><g id="Bunny"><g id="bunny-2" data-name="bunny"><path class="cls-1" d="M81.42,100.21s20.73-5.39,30.32-3.16c0,0-1.7-96,50.48-97,0,0,44.73,21.83-19.7,106,0,0,61.23,44.72,5.86,86.79,0,0,54.31,14.91,45.79,34.08s-40.47-2.67-40.47-2.67,9.59,31.42,2.67,46.33c0,0,36.73,6.92,28.22,24s-44.2-4.26-44.2-4.26-28.22,9.05-67.62.53c0,0-30.83,23.11-41.84,6.78-13.26-19.66,24.8-29.14,24.8-29.14S50.94,230,56.8,219.9c0,0-29.46,26.14-38.87,7.46,0,0-4.26-21.3,39.93-36.74,0,0-29.82-29.82,3.73-73.48,0,0-76.14-38.34-59.1-92.11C2.49,25,59.59-4.68,81.42,100.21Z"/><path class="cls-2" d="M115.93,97.41s13.1,1.34,21.1,7c0,0,49.52-71.88,22.36-90S115.93,97.41,115.93,97.41Z"/><path class="cls-2" d="M77.13,101.67a47,47,0,0,0-12.78,11.92S-13.82,53.1,14.49,32.39C45.07,10,77.13,101.67,77.13,101.67Z"/><circle class="cls-3" cx="12.37" cy="41.64" r="1.46"/><circle class="cls-3" cx="150.79" cy="14.98" r="1.46"/><circle class="cls-3" cx="158.41" cy="17.13" r="1.46"/><circle class="cls-3" cx="153.07" cy="21.03" r="1.46"/><circle class="cls-3" cx="143.95" cy="29.93" r="1.46"/><circle class="cls-3" cx="153.07" cy="32.66" r="1.46"/><circle class="cls-3" cx="164.84" cy="36.49" r="1.46"/><circle class="cls-3" cx="157.81" cy="38.91" r="1.46"/><circle class="cls-3" cx="147.19" cy="35.85" r="1.46"/><circle class="cls-3" cx="138.07" cy="29.25" r="1.46"/><circle class="cls-3" cx="139.94" cy="35.03" r="1.46"/><circle class="cls-3" cx="151.21" cy="41.11" r="1.46"/><circle class="cls-3" cx="139.94" cy="41.75" r="1.46"/><circle class="cls-3" cx="163.38" cy="42.95" r="1.46"/><circle class="cls-3" cx="162.52" cy="49.14" r="1.46"/><circle class="cls-3" cx="156.42" cy="45.82" r="1.46"/><circle class="cls-3" cx="156.42" cy="52.15" r="1.46"/><circle class="cls-3" cx="159.39" cy="57.7" r="1.46"/><circle class="cls-3" cx="156.02" cy="65.72" r="1.46"/><circle class="cls-3" cx="153.68" cy="58.93" r="1.46"/><circle class="cls-3" cx="150.21" cy="47.33" r="1.46"/><circle class="cls-3" cx="148.44" cy="53.88" r="1.46"/><circle class="cls-3" cx="145.95" cy="43.54" r="1.46"/><circle class="cls-3" cx="133.31" cy="41.64" r="1.46"/><circle class="cls-3" cx="136.82" cy="48.18" r="1.46"/><circle class="cls-3" cx="130.12" cy="48.88" r="1.46"/><circle class="cls-3" cx="140.65" cy="53.88" r="1.46"/><circle class="cls-3" cx="146.71" cy="59.35" r="1.46"/><circle class="cls-3" cx="149.29" cy="66.18" r="1.46"/><circle class="cls-3" cx="147.89" cy="72.26" r="1.46"/><circle class="cls-3" cx="138.77" cy="71.77" r="1.46"/><circle class="cls-3" cx="143.52" cy="49.14" r="1.46"/><circle class="cls-3" cx="137.87" cy="59.79" r="1.46"/><circle class="cls-3" cx="133.9" cy="53.88" r="1.46"/><circle class="cls-3" cx="126.91" cy="55.34" r="1.46"/><circle class="cls-3" cx="131.27" cy="59.79" r="1.46"/><circle class="cls-3" cx="132.6" cy="66.83" r="1.46"/><circle class="cls-3" cx="143.38" cy="78.16" r="1.46"/><circle class="cls-3" cx="142.25" cy="65.72" r="1.46"/><circle class="cls-3" cx="153.99" cy="72.02" r="1.46"/><circle class="cls-3" cx="148.44" cy="82.73" r="1.46"/><circle class="cls-3" cx="138.22" cy="82.97" r="1.46"/><circle class="cls-3" cx="126.91" cy="78.01" r="1.46"/><circle class="cls-3" cx="122.59" cy="74.51" r="1.46"/><circle class="cls-3" cx="120.97" cy="81.27" r="1.46"/><circle class="cls-3" cx="131.27" cy="83.6" r="1.46"/><circle class="cls-3" cx="142.56" cy="87.59" r="1.46"/><circle class="cls-3" cx="135.37" cy="90.43" r="1.46"/><circle class="cls-3" cx="124.38" cy="87.3" r="1.46"/><circle class="cls-3" cx="119.11" cy="89.43" r="1.46"/><circle class="cls-3" cx="129.03" cy="93.14" r="1.46"/><circle class="cls-3" cx="139.3" cy="95.95" r="1.46"/><circle class="cls-3" cx="133.9" cy="97.87" r="1.46"/><circle class="cls-3" cx="122.31" cy="93.96" r="1.46"/><circle class="cls-3" cx="125.61" cy="63.07" r="1.46"/><circle class="cls-3" cx="126.91" cy="71.22" r="1.46"/><circle class="cls-3" cx="134.31" cy="76.7" r="1.46"/><circle class="cls-3" cx="134.31" cy="36.49" r="1.46"/><circle class="cls-3" cx="162.52" cy="21.34" r="1.46"/><circle class="cls-3" cx="157.81" cy="26.04" r="1.46"/><circle class="cls-3" cx="164.84" cy="28.8" r="1.46"/><circle class="cls-3" cx="159.87" cy="32.66" r="1.46"/><circle class="cls-3" cx="150.79" cy="27.79" r="1.46"/><circle class="cls-3" cx="142.56" cy="23.73" r="1.46"/><circle class="cls-3" cx="145.73" cy="18.16" r="1.46"/><circle class="cls-3" cx="23.25" cy="37.78" r="1.46"/><circle class="cls-3" cx="18.37" cy="35.03" r="1.46"/><circle class="cls-3" cx="28.36" cy="32.66" r="1.46"/><circle class="cls-3" cx="31.62" cy="42.07" r="1.46"/><circle class="cls-3" cx="19.84" cy="44.57" r="1.46"/><circle class="cls-3" cx="12.37" cy="49.14" r="1.46"/><circle class="cls-3" cx="17.49" cy="51.81" r="1.46"/><circle class="cls-3" cx="28.69" cy="49.26" r="1.46"/><circle class="cls-3" cx="39.39" cy="42.07" r="1.46"/><circle class="cls-3" cx="38.12" cy="48.88" r="1.46"/><circle class="cls-3" cx="25.76" cy="55.32" r="1.46"/><circle class="cls-3" cx="16.03" cy="58.25" r="1.46"/><circle class="cls-3" cx="21.78" cy="61.17" r="1.46"/><circle class="cls-3" cx="33.96" cy="56.43" r="1.46"/><circle class="cls-3" cx="45.4" cy="49.68" r="1.46"/><circle class="cls-3" cx="43.29" cy="55.63" r="1.46"/><circle class="cls-3" cx="30.58" cy="62.97" r="1.46"/><circle class="cls-3" cx="21.78" cy="67.86" r="1.46"/><circle class="cls-3" cx="28.36" cy="69.76" r="1.46"/><circle class="cls-3" cx="39.39" cy="61.82" r="1.46"/><circle class="cls-3" cx="28.06" cy="77.45" r="1.46"/><circle class="cls-3" cx="35.99" cy="70.79" r="1.46"/><circle class="cls-3" cx="47.61" cy="61.17" r="1.46"/><circle class="cls-3" cx="43.33" cy="69.33" r="1.46"/><circle class="cls-3" cx="50.03" cy="83.45" r="1.46"/><circle class="cls-3" cx="57.92" cy="74.88" r="1.46"/><circle class="cls-3" cx="58.75" cy="84.07" r="1.46"/><circle class="cls-3" cx="66.64" cy="85.53" r="1.46"/><circle class="cls-3" cx="43.33" cy="90.43" r="1.46"/><circle class="cls-3" cx="47.61" cy="96.28" r="1.46"/><circle class="cls-3" cx="40" cy="76.7" r="1.46"/><circle class="cls-3" cx="50.78" cy="66.83" r="1.46"/><circle class="cls-3" cx="50.78" cy="55.34" r="1.46"/><circle class="cls-3" cx="58.22" cy="67.86" r="1.46"/><circle class="cls-3" cx="50.03" cy="75.52" r="1.46"/><circle class="cls-3" cx="43.29" cy="83.6" r="1.46"/><circle class="cls-3" cx="64.35" cy="78.01" r="1.46"/><circle class="cls-3" cx="34.53" cy="81.99" r="1.46"/><circle class="cls-3" cx="54.73" cy="90.89" r="1.46"/><circle class="cls-3" cx="63.53" cy="91.89" r="1.46"/><circle class="cls-3" cx="53.27" cy="97.8" r="1.46"/><circle class="cls-3" cx="61.41" cy="98.75" r="1.46"/><circle class="cls-3" cx="57.29" cy="104.1" r="1.46"/><circle class="cls-3" cx="70.34" cy="94.82" r="1.46"/><circle class="cls-3" cx="72.33" cy="100.21" r="1.46"/><circle class="cls-3" cx="65.81" cy="104.1" r="1.46"/><circle class="cls-3" cx="62.88" cy="108.73" r="1.46"/><circle class="cls-3" cx="34.53" cy="37.78" r="1.46"/><circle class="cls-3" cx="81.24" cy="148.47" r="17.71"/><circle class="cls-3" cx="136.82" cy="146.34" r="17.71"/><circle class="cls-4" cx="82.5" cy="149.73" r="13.12"/><circle class="cls-4" cx="135.44" cy="147.72" r="13"/><path class="cls-3" d="M111,157.79c4.26-.07,21.8,5.94,21.8,23.29,0,7.83-41.87,10.07-43.44,1.34S96.9,158,111,157.79Z"/><path class="cls-2" d="M109.19,174.74c-2,.06-10.12-2.61-10.23-10.64,0-3.63,19.32-4.93,20.1-.9S115.72,174.55,109.19,174.74Z"/></g></g></g></svg>