<svg xmlns="http://www.w3.org/2000/svg" viewBox="0 0 108.61 172.14"><defs><style>.cls-1{fill:#7b5634;}.cls-2{fill:#866344;}.cls-3{fill:#e9ddcf;}.cls-4{fill:#684526;}</style></defs><title>full bunny</title><g id="Layer_2" data-name="Layer 2"><g id="Choco_Bunny" data-name="Choco Bunny"><g id="full_bunny" data-name="full bunny"><path class="cls-1" d="M60.24,3.07S45-9.38,34.18,19.65s-4.93,14.52-4.93,14.52S-1,42.83,0,59.93,15.79,78.67,15.79,83.72,8.89,96,10.53,105.36,23,128.59,22.35,134.43,9.88,149.58,11.52,158.92s5.58,12.1,28.57,13,63.38,0,63.05-11.85V153.6s6.64-6.07,5.29-12.29-9.77-10-9.77-10,8.13-24.88-32.12-42.85c0,0-14-6.22-14.3-9s-1.32-24.39,0-27.57S68.12,41.08,69.87,27.6c0,0-7.09-1-6.45-10.71A5.24,5.24,0,0,1,62.09,11S53.13,7.21,60.24,3.07Z"/><path class="cls-2" d="M62.09,11S50.6,39.7,39.76,43.5c0,0,19.52-22.68,19.78-34Z"/><path class="cls-2" d="M60.24,3.07s-14.9-7.95-30,33.86V30.3S41-11.45,60.24,3.07Z"/><path class="cls-2" d="M69.87,27.6s-12.05,18.67-19,22.47C50.92,50.07,67.47,41.08,69.87,27.6Z"/><path class="cls-2" d="M32.21,59.93s-3.62-5.37-10.84-2.6C21,45.92,35.49,44.91,32.21,59.93Z"/><path class="cls-3" d="M31.52,58.47A11.81,11.81,0,0,0,22,56.75C24.3,45.34,34.48,50.63,31.52,58.47Z"/><path class="cls-4" d="M30.54,58.34a9.51,9.51,0,0,0-7.06-1.53C24,50.16,32.51,51.88,30.54,58.34Z"/><path class="cls-2" d="M16.77,40.69s-18.47,6.87-13,27.74C3.72,68.43-6.75,48.86,16.77,40.69Z"/><path class="cls-3" d="M92.14,118S91.38,99.32,60.4,89C60.4,89,88.85,104,92.14,118Z"/><path class="cls-2" d="M68.23,125.93s-13.2-8-21.08,0S39.76,140.62,43,150.29c-14.45-9.5-12.21,17.11-2.24,15.38-14-.69-14-20.39-.22-18.66C31.22,135.26,45.3,105.36,68.23,125.93Z"/><path class="cls-3" d="M58.4,131.54s-11.09-4.1-11.33,10.78C47.07,142.32,40.91,119.36,58.4,131.54Z"/><path class="cls-2" d="M97.8,132.51s15.19,6,4.76,16.92C102.56,149.43,104.45,135,97.8,132.51Z"/><path class="cls-2" d="M18.74,149.43s-9,10,3.26,16.68C22,166.11,5.69,163.69,18.74,149.43Z"/></g></g></g></svg>