<svg xmlns="http://www.w3.org/2000/svg" viewBox="0 0 808.62 102.01"><defs><style>.cls-1{fill:#bcdc9e;}</style></defs><title>Grass</title><g id="Layer_2" data-name="Layer 2"><g id="Clouds_Grass" data-name="Clouds/Grass"><g id="Grass"><path class="cls-1" d="M808.62,23.71c-3-3.16-5.68-5.46-7.31-5.77a162.79,162.79,0,0,1,7.31,23.46Z"/><path class="cls-1" d="M773.08,24.66s16.49,28,16.49,34.75c0,0-19.37-20.18-34.52-19,0,0,18.07,14.57,9,23.54,0,0-18.29-1.13-30.08-16.82a64.48,64.48,0,0,0,7.58,23.54S722.91,46,705.72,42.6c0,0,16.49,12.33,16.49,21.3s-32-5.61-37.88-14.58l5,21.3s-26.1-19.06-26.1-35.31c0,0-7.58,9.53,7.58,35.31a149.38,149.38,0,0,0-11.6-10.92v1.49c-7.45-13.54-18.7-30-31.42-35,0,0,18.31,33.26,15.78,45.59,0,0-37.09-52.68-42.94-53.8,0,0,10.14,24.66,9.3,41.47,0,0-21.19-30.26-37.54-34.75,0,0,16.49,28,16.49,34.75,0,0-19.36-20.18-34.52-19,0,0,18.07,14.57,9,23.54,0,0-18.3-1.13-30.09-16.82a64.72,64.72,0,0,0,7.58,23.54S522.27,46,505.09,42.6c0,0,16.49,12.33,16.49,21.3s-32-5.61-37.89-14.58l5.05,21.3s-26.1-19.06-26.1-35.31c0,0-7.58,9.53,7.58,35.31a149.38,149.38,0,0,0-11.6-10.92v8.49c-5.44-.5-15.29,2.43-15.29,2.43,16.92-25.78,8.46-35.31,8.46-35.31,0,16.25-29.14,35.31-29.14,35.31l5.64-21.3C421.71,58.29,386,72.86,386,63.9s18.41-21.3,18.41-21.3c-19.19,3.36-40,28-40,28a59.7,59.7,0,0,0,8.45-23.54C359.69,62.77,339.26,63.9,339.26,63.9c-10.08-9,10.09-23.54,10.09-23.54-16.92-1.13-38.53,19-38.53,19,0-6.72,18.4-34.75,18.4-34.75-18.24,4.49-41.9,34.75-41.9,34.75-.94-16.81,10.39-41.47,10.39-41.47-6.53,1.12-42.09,42-42.09,42C252.8,47.64,265,29.67,265,29.67c-9.55,3.38-18.07,11.77-25,20.91-13.88,7.66-26.73,20-26.73,20,16.92-25.78,8.46-35.31,8.46-35.31,0,16.25-29.13,35.31-29.13,35.31l5.63-21.3C191.72,58.29,156,72.86,156,63.9s18.41-21.3,18.41-21.3c-19.18,3.36-40,28-40,28a59.63,59.63,0,0,0,8.46-23.54C129.69,62.77,109.27,63.9,109.27,63.9c-10.09-9,10.08-23.54,10.08-23.54-16.92-1.13-38.53,19-38.53,19,0-6.72,18.41-34.75,18.41-34.75C81,29.15,57.32,59.41,57.32,59.41,56.38,42.6,67.71,17.94,67.71,17.94c-6.53,1.12-28.24,28-28.24,28C36.65,33.63,59.2,0,59.2,0,33.83,9,1.52,59.41,1.52,59.41L0,102H808.62V56.68C803,49.15,786.42,28.32,773.08,24.66Z"/></g></g></g></svg>