<svg xmlns="http://www.w3.org/2000/svg" viewBox="0 0 280.32 73.7"><defs><style>.cls-1{fill:#fff;}</style></defs><title>Happy Easter</title><g id="Layer_2" data-name="Layer 2"><g id="Happy_Easter" data-name="Happy Easter"><g id="Happy_Easter-2" data-name="Happy Easter"><path class="cls-1" d="M25.1,2.41a6.35,6.35,0,0,1,2.1,2.74,10.49,10.49,0,0,1,.88,3.3c.11,1.12.19,2.68.24,4.67l.08,16.41v3.54c0,1.61,0,2.82-.08,3.62a105.28,105.28,0,0,0,.48,11.87c.33,2.55.86,3.93,1.61,4.14a4.3,4.3,0,0,0,1,.16q2.42,0,3.58-3.58a68.92,68.92,0,0,0,2.21-10q.33-2.1.69-4a13,13,0,0,1,.76-2.77,2.16,2.16,0,0,1,.48-1.21,1.17,1.17,0,0,1,.89-.48c.59,0,.88.45.88,1.36a4,4,0,0,1-.08,1,49.39,49.39,0,0,0-1.12,7.24,83.69,83.69,0,0,1-1.53,9.74,12.62,12.62,0,0,1-2.74,5.79,8.52,8.52,0,0,1-6,2.41,8.1,8.1,0,0,1-3.78-1A10.12,10.12,0,0,1,21.2,51,37.5,37.5,0,0,1,20,41V39.27c-.1-5.15-.16-8.67-.16-10.55v-4L8.45,26.39V40.71q0,10.07-1.37,11.91a2.16,2.16,0,0,1-1.85.89A5.38,5.38,0,0,1,1.73,52,4.2,4.2,0,0,1,0,48.92q0-8.45.32-25.18L.56,8.13A36.85,36.85,0,0,1,.8,4.22C1,2.75,1.37,2,2,2a6,6,0,0,1,3.7,1.21A6.79,6.79,0,0,1,8.05,6.44a17.12,17.12,0,0,1,.48,4.74c0,5.64,0,9.87-.08,12.72q3.78-.57,11.34-1.53c0-1.29.06-3.33.16-6.12l.17-9.49q0-3.54,1.68-4.59a2.54,2.54,0,0,1,1.37-.4A3.2,3.2,0,0,1,25.1,2.41Z"/><path class="cls-1" d="M48.92,26.39v.16a.62.62,0,0,1-.2.44.57.57,0,0,1-.36.21l-.16-.08a2.52,2.52,0,0,0-1.45-.81.93.93,0,0,0-.57.32q-.32.33-.72.81a9.26,9.26,0,0,0-1.53,4.1,25.22,25.22,0,0,0-.24,3.38c0,1,.11,2.52.32,4.67a4.27,4.27,0,0,0,1.21,2.65c.64.65,1.12,1,1.45,1a2.27,2.27,0,0,0,1.12-.49c.65-.42,1.4-1.66,2.26-3.7-.11-.64-.22-1.66-.33-3.05l-.24-3c0-.48-.08-1.21-.08-2.17,0-.75.06-1.93.16-3.54l.08-1.77a1.57,1.57,0,0,1,.49-1.29.86.86,0,0,1,.64-.24s.4.08,1,.24c1.55.59,2.49,1.26,2.81,2A5,5,0,0,1,55,28.56v3.7a27.67,27.67,0,0,0,.4,5.15q.31,2.51,1.53,3.3a4,4,0,0,0,2.09.89A3.12,3.12,0,0,0,61,40.71a6,6,0,0,0,1.73-3.05,22.82,22.82,0,0,0,.56-3.38c.08-1,.15-1.72.2-2.1a1.19,1.19,0,0,1,.37-.72,1,1,0,0,1,.68-.24c.59,0,.88.4.88,1.21A24.26,24.26,0,0,1,64.25,39Q63.08,43,60.51,44.41a7.93,7.93,0,0,1-4.27,1.37,4.75,4.75,0,0,1-2.33-.56,6.38,6.38,0,0,1-3.06-3.38l-.64.88A9.84,9.84,0,0,1,45,46.18a6.47,6.47,0,0,1-3.74-.48,4.87,4.87,0,0,1-2-1.53,10.6,10.6,0,0,1-2-6.84,16.43,16.43,0,0,1,1.13-5.91,16.15,16.15,0,0,1,3.3-5.27A6.33,6.33,0,0,1,45.78,24H46C47.1,24,48.06,24.78,48.92,26.39Z"/><path class="cls-1" d="M88.59,31.78a1.41,1.41,0,0,1-.29.81l-.44.64a23.25,23.25,0,0,1-8.37,6.44L79.09,41a7.25,7.25,0,0,1-.8,1.6,5.65,5.65,0,0,1-1.49,1.77,5.3,5.3,0,0,1-2.94.73h-.48a2.8,2.8,0,0,1-.89-.16,2.26,2.26,0,0,1-1.69-2.17c0-1.4.54-2.2,1.61-2.42l1.85-.48L74.67,38a30.76,30.76,0,0,0,.64-6.36,16.5,16.5,0,0,0-.64-5c-.43-1.31-1.08-2-1.93-2q-1.86,0-4,4.91a14,14,0,0,1,.61,3.18q.12,1.65.12,4.14l-.24,32a3.61,3.61,0,0,1-.65,2.42,2,2,0,0,1-1.45.56,3.94,3.94,0,0,1-1.69-.48,6.45,6.45,0,0,1-2.89-4.27A14.06,14.06,0,0,1,62.2,64v-2.1q.31-8.76.8-25.5l-.08.64.16-8.85c0-1.55.38-2.52,1.13-2.9a1.37,1.37,0,0,1,.72-.16,3.1,3.1,0,0,1,2.25,1.29L68,27.76a18.66,18.66,0,0,1,1.29-2.17A5.81,5.81,0,0,1,73.22,23a1.43,1.43,0,0,1,.56-.08,5.12,5.12,0,0,1,2.82.89,6.76,6.76,0,0,1,2.17,2.25,12.26,12.26,0,0,1,1.53,6.6A29.89,29.89,0,0,1,80,37.41a28.89,28.89,0,0,0,7-5.71c.37-.37.67-.56.88-.56a.66.66,0,0,1,.49.16A.69.69,0,0,1,88.59,31.78Zm-15,11.43s.11-.54.32-1.61q-.31,1.53-.72,1.53a.89.89,0,0,1-.56-.32,1.14,1.14,0,0,0,.56.4Z"/><path class="cls-1" d="M111.68,31.78a1.47,1.47,0,0,1-.28.81l-.45.64a23.25,23.25,0,0,1-8.37,6.44l-.4,1.37a7.25,7.25,0,0,1-.8,1.6,5.65,5.65,0,0,1-1.49,1.77,5.3,5.3,0,0,1-2.94.73h-.48a2.8,2.8,0,0,1-.89-.16,2.25,2.25,0,0,1-1.68-2.17c0-1.4.53-2.2,1.6-2.42l1.86-.48.4-1.93a30.76,30.76,0,0,0,.64-6.36,16.5,16.5,0,0,0-.64-5c-.43-1.31-1.08-2-1.93-2q-1.86,0-4,4.91a14,14,0,0,1,.61,3.18q.12,1.65.12,4.14l-.24,32a3.61,3.61,0,0,1-.65,2.42,2,2,0,0,1-1.45.56,3.94,3.94,0,0,1-1.69-.48,6.45,6.45,0,0,1-2.89-4.27A14.06,14.06,0,0,1,85.29,64v-2.1q.31-8.76.8-25.5L86,37l.16-8.85c0-1.55.38-2.52,1.13-2.9A1.37,1.37,0,0,1,88,25.1a3.1,3.1,0,0,1,2.25,1.29l.81,1.37a18.66,18.66,0,0,1,1.29-2.17A5.81,5.81,0,0,1,96.31,23a1.43,1.43,0,0,1,.56-.08,5.12,5.12,0,0,1,2.82.89,6.76,6.76,0,0,1,2.17,2.25,12.26,12.26,0,0,1,1.53,6.6,29.89,29.89,0,0,1-.32,4.74,28.89,28.89,0,0,0,7-5.71c.37-.37.67-.56.88-.56a.66.66,0,0,1,.49.16A.69.69,0,0,1,111.68,31.78ZM96.63,43.21s.11-.54.32-1.61q-.32,1.53-.72,1.53a.89.89,0,0,1-.56-.32,1.14,1.14,0,0,0,.56.4Z"/><path class="cls-1" d="M114,24.86a3.18,3.18,0,0,1,1.61,2.42,34.17,34.17,0,0,1,.16,3.94,47,47,0,0,1-.72,8.13c-.06.21-.11.45-.16.72a4.51,4.51,0,0,0-.09,1,2.17,2.17,0,0,0,.09.72,2.1,2.1,0,0,0,1.44,1.77h.24c.81,0,1.8-.59,3-1.77v-3.3a3.53,3.53,0,0,1,.08-.8c0-3.54,0-6.23.08-8a3.64,3.64,0,0,1,.49-2.17,2.06,2.06,0,0,1,1.52-.65,3.13,3.13,0,0,1,2,.81A5,5,0,0,1,125.19,30a19.12,19.12,0,0,1,.57,3.62l.4,6.92c0,.32.11.87.16,1.65s.08,1.52.08,2.21a46.07,46.07,0,0,0,4.23-6A44.16,44.16,0,0,0,134,31.94a1.27,1.27,0,0,1,.49-.52,1.34,1.34,0,0,1,.8-.28c.22,0,.35.08.4.24a1,1,0,0,1,.33.72,1.56,1.56,0,0,1-.16.65,58.06,58.06,0,0,1-4.11,7.44,39.84,39.84,0,0,1-5.15,6.8c0,.21,0,.66-.08,1.33s-.08,1.49-.08,2.45q-.24,3.06-.64,13c-.11,1.6-.26,2.93-.44,4a10.34,10.34,0,0,1-1,2.94A6.3,6.3,0,0,1,123,72.38a4.89,4.89,0,0,1-1.69,1.08,6,6,0,0,1-1.53.24,4.07,4.07,0,0,1-3.13-1.41,9.45,9.45,0,0,1-1.94-3.17,11.35,11.35,0,0,1-.72-2.74,14.06,14.06,0,0,1,.48-4.67,20.26,20.26,0,0,1,1.85-4.58,23.72,23.72,0,0,1,1.89-2.78l1.49-1.89V45.38a14.45,14.45,0,0,1-.16-1.69,8.69,8.69,0,0,1-4.1,1.93l-1,.08a5.32,5.32,0,0,1-3.7-1.37,5.73,5.73,0,0,1-1.61-3.54,28.56,28.56,0,0,1-.4-3.86l.08-1c0-1.13,0-2,.08-2.66,0-2.09.07-3.86.2-5.31a11,11,0,0,1,.93-3.7,1.05,1.05,0,0,1,1-.48A5.22,5.22,0,0,1,114,24.86Zm5.39,46.83q.48-.48.48-5.07l-.08-6.35c0-1.24-.08-2.9-.08-5a21,21,0,0,0-3,5.31,13.78,13.78,0,0,0-.81,4.34,9.62,9.62,0,0,0,1.85,5.72q.89,1.2,1.29,1.2A1.3,1.3,0,0,0,119.4,71.69Z"/><path class="cls-1" d="M167.76,2.09a6.54,6.54,0,0,1,.56,1.05.89.89,0,0,1-.08,1,1.44,1.44,0,0,1-1.05.49A1.17,1.17,0,0,1,166.07,4a4.61,4.61,0,0,1-.28-.68,4.63,4.63,0,0,0-.29-.68A1.59,1.59,0,0,0,164.14,2a1.86,1.86,0,0,0-1,.24A6.11,6.11,0,0,0,161.32,4a29.82,29.82,0,0,0-2.53,4.51,10.36,10.36,0,0,0-.93,4.26,7.49,7.49,0,0,0,1.45,4.51,5.31,5.31,0,0,0,3.62,2.33,6.29,6.29,0,0,1,1.25.24,1.31,1.31,0,0,1,.68.57,1,1,0,0,1,.08.4,1.34,1.34,0,0,1-.4.92,2.69,2.69,0,0,1-1,.69,5.32,5.32,0,0,1-1.77.48,12.44,12.44,0,0,0-4,3.18,15.86,15.86,0,0,0-2.7,4.63,21.72,21.72,0,0,0-1.36,7.88,31.13,31.13,0,0,0,.24,3.86,13.23,13.23,0,0,0,.88,3.7,4.64,4.64,0,0,0,2.74,2.5l.8.08q1.77,0,4.35-2.09a37.32,37.32,0,0,0,6.27-6.6,34.84,34.84,0,0,0,4.51-7.48A1.57,1.57,0,0,1,175,31.46a1.19,1.19,0,0,1,.48.08c.43.05.65.35.65.89a2.61,2.61,0,0,1-.17.8A36.81,36.81,0,0,1,171.22,41,49.42,49.42,0,0,1,164.94,48a37.2,37.2,0,0,1-5,3.94A9.66,9.66,0,0,1,155,53.51h-.24a8.49,8.49,0,0,1-4.46-1.29,11.16,11.16,0,0,1-3.5-3.3,15.59,15.59,0,0,1-2.26-9.49c.17-2,.37-3.83.61-5.35a25.84,25.84,0,0,1,1.08-4.39,17.5,17.5,0,0,1,1.61-3.3,35.43,35.43,0,0,1,2.34-3.14,8.55,8.55,0,0,1,4.34-3.05,14.56,14.56,0,0,1-1.45-2,12.27,12.27,0,0,1-1.44-5.95,13.7,13.7,0,0,1,1.36-6,10.64,10.64,0,0,1,3.87-4.47A11,11,0,0,1,162.69,0,6.45,6.45,0,0,1,167.76,2.09Z"/><path class="cls-1" d="M184.17,26.39v.16a.62.62,0,0,1-.2.44.57.57,0,0,1-.36.21l-.16-.08a2.49,2.49,0,0,0-1.45-.81.89.89,0,0,0-.56.32c-.22.22-.46.49-.73.81a9.26,9.26,0,0,0-1.53,4.1,25.22,25.22,0,0,0-.24,3.38c0,1,.11,2.52.32,4.67a4.27,4.27,0,0,0,1.21,2.65c.64.65,1.13,1,1.45,1a2.24,2.24,0,0,0,1.12-.49c.65-.42,1.4-1.66,2.26-3.7-.11-.64-.22-1.66-.32-3.05l-.25-3c0-.48-.08-1.21-.08-2.17,0-.75.06-1.93.16-3.54l.08-1.77a1.6,1.6,0,0,1,.49-1.29A.86.86,0,0,1,186,24s.4.08,1,.24c1.55.59,2.49,1.26,2.81,2a5,5,0,0,1,.41,2.33v3.7a27.67,27.67,0,0,0,.4,5.15q.31,2.51,1.53,3.3a4,4,0,0,0,2.09.89,3.12,3.12,0,0,0,1.93-.89A6,6,0,0,0,198,37.66a22.82,22.82,0,0,0,.56-3.38c.08-1,.15-1.72.2-2.1a1.19,1.19,0,0,1,.37-.72,1,1,0,0,1,.68-.24c.59,0,.89.4.89,1.21A23.94,23.94,0,0,1,199.5,39q-1.17,3.94-3.74,5.39a7.93,7.93,0,0,1-4.27,1.37,4.78,4.78,0,0,1-2.33-.56,6.38,6.38,0,0,1-3.06-3.38l-.64.88a9.8,9.8,0,0,1-5.23,3.46,6.47,6.47,0,0,1-3.74-.48,4.77,4.77,0,0,1-2-1.53,10.54,10.54,0,0,1-2-6.84,16.43,16.43,0,0,1,1.13-5.91,16.15,16.15,0,0,1,3.3-5.27A6.33,6.33,0,0,1,181,24h.24C182.35,24,183.31,24.78,184.17,26.39Z"/><path class="cls-1" d="M203.56,23.9a2.07,2.07,0,0,1,1.37.4,2.45,2.45,0,0,1,.8,1.45,1.88,1.88,0,0,1,.08.64,6,6,0,0,1-2.17,4.67,12,12,0,0,1-1.21.8l.57.65a9.15,9.15,0,0,0,1.69,1.12c.69.38,1.26.7,1.69,1a5.31,5.31,0,0,0,.88.6,3.47,3.47,0,0,1,1.13,1.09,10.34,10.34,0,0,0,3.7-1.61,18.43,18.43,0,0,0,3.06-2.58,1.83,1.83,0,0,1,1.2-.64c.27,0,.43.08.49.24a1.21,1.21,0,0,1,.24.73,3.05,3.05,0,0,1-.32.8,18.08,18.08,0,0,1-3.26,2.82A15.6,15.6,0,0,1,209.68,38a5.34,5.34,0,0,1,1.12,3.22,5.74,5.74,0,0,1-2.33,4.5,7.31,7.31,0,0,1-2.62,1.13,13.06,13.06,0,0,1-3.34.48,4.84,4.84,0,0,1-1.2-.16v-.08a1.58,1.58,0,0,1-1.13-.72,2,2,0,0,1-.4-1.29,4.22,4.22,0,0,1,.16-1,8.74,8.74,0,0,1,1.29-1.93,19.3,19.3,0,0,1,2.41-2.33l-.8-.89a14.23,14.23,0,0,0-1.21-.92,14.45,14.45,0,0,1-1.37-1.09,7.4,7.4,0,0,1-1.77-2.53,7.72,7.72,0,0,1-.64-3.1,4,4,0,0,1,.08-1,6.53,6.53,0,0,1,.24-1.85q1.37-4.57,5.31-4.58Zm-1.21,6.92a5.56,5.56,0,0,0,2.1-3.62,2.93,2.93,0,0,1,0-.45.8.8,0,0,0-.12-.52,1.05,1.05,0,0,0-.29-.32.66.66,0,0,0-.44-.16,2.3,2.3,0,0,0-1,.56l-.4.48a3.78,3.78,0,0,0-.72,3,4.78,4.78,0,0,0,.48,1.37ZM204.16,45a7.08,7.08,0,0,0,.29-3.14,22.75,22.75,0,0,0-2.18,1.93c-.53.43-.77.83-.72,1.21s.37.83,1.13,1h.24C203.45,46,203.87,45.68,204.16,45Z"/><path class="cls-1" d="M221.79,12.87c1,.7,1.46,1.37,1.24,2-.21,1.12-.4,2-.56,2.69s-.3,1.22-.4,1.65h.48c2.14,0,3.73,0,4.75.08a.74.74,0,0,1,.72.32.49.49,0,0,1,.08.32,1.1,1.1,0,0,1-.32.81A1.12,1.12,0,0,1,227,21l-5.23.08a1,1,0,0,1-.08.48l-.4,3.14a84.06,84.06,0,0,0-.56,10.06c0,1.93,0,3.38.08,4.34a13.77,13.77,0,0,0,.44,3.18c.3,1.21.77,1.89,1.41,2a2.22,2.22,0,0,0,.72.08c1.56,0,3-1.31,4.43-3.94a30.9,30.9,0,0,0,3-8.21,1.1,1.1,0,0,1,.48-.76,1.49,1.49,0,0,1,.88-.28.92.92,0,0,1,.77.36,1.34,1.34,0,0,1,.2,1,32.49,32.49,0,0,1-4.1,11q-3.06,5.11-8.05,5.11a5,5,0,0,1-3.14-1.13,7.73,7.73,0,0,1-2.25-2.81,12.58,12.58,0,0,1-1.05-3.06,32.93,32.93,0,0,1-.48-3.86c-.11-2.26-.16-4-.16-5.31a85.18,85.18,0,0,1,.72-11.27l-4.9.16-.73-.16a1,1,0,0,1-.32-.28.66.66,0,0,1-.16-.44.86.86,0,0,1,.4-.81,1.55,1.55,0,0,1,.64-.16c2.37-.1,4.14-.16,5.32-.16a49.3,49.3,0,0,1,1.28-5.87,2.24,2.24,0,0,1,2.42-1.69A5.87,5.87,0,0,1,221.79,12.87Z"/><path class="cls-1" d="M241.17,25.26a2.8,2.8,0,0,1,1.09,2.26q0,1.77-2.41,4l-4.11,3.86.24,2.09a15.2,15.2,0,0,0,.61,2.46,4.61,4.61,0,0,0,1.08,1.73,3.49,3.49,0,0,0,2.58.88,6.13,6.13,0,0,0,2.49-.56c.92-.43,2.12-1.7,3.62-3.82a19.52,19.52,0,0,0,3-5.67c.16-.59.46-.89.89-.89a.71.71,0,0,1,.56.32,1.34,1.34,0,0,1,.24.81,2.17,2.17,0,0,1-.08.64,21.81,21.81,0,0,1-3.14,6,16.48,16.48,0,0,1-5.31,4.78,12.7,12.7,0,0,1-4.42,1.45,6.53,6.53,0,0,1-1.85.24,6,6,0,0,1-2.74-.56,6.13,6.13,0,0,1-2.82-3.38,14.65,14.65,0,0,1-1.12-5.63,14.21,14.21,0,0,1,1-5.15,13.23,13.23,0,0,1,2.74-4.35,8.67,8.67,0,0,1,2.45-1.61,8,8,0,0,1,2.78-.8h.16A3.91,3.91,0,0,1,241.17,25.26Zm-4.3,6.52c1.88-1.66,2.92-2.89,3.14-3.7a2.54,2.54,0,0,0,.08-.72c0-.43-.14-.7-.4-.81a.7.7,0,0,0-.49-.16,2.4,2.4,0,0,0-1.77,1.13,7.94,7.94,0,0,0-1.85,4.66v.73Z"/><path class="cls-1" d="M272.67,32.43l-.16.64c-.05.16-.52,1.38-1.4,3.66a48.59,48.59,0,0,1-3.87,7.56,19.41,19.41,0,0,1-4.94,5.84,5,5,0,0,1-2.74.88,6,6,0,0,1-1.53-.24q-3.61-2.09-3.62-8.85a46.35,46.35,0,0,1,1.53-10.7,9.23,9.23,0,0,0-1.21,1,6.68,6.68,0,0,1-1.41,1,2.69,2.69,0,0,1-1.32.32,4.27,4.27,0,0,1-.89-.16c-1.5-.48-2.36-1.21-2.57-2.17a6.75,6.75,0,0,1-.16-1.29,3.25,3.25,0,0,1,.56-1.93,1.62,1.62,0,0,1,.88-.64,3.68,3.68,0,0,1,1.29-.24h.24a1.59,1.59,0,0,1,1,.6,1.79,1.79,0,0,1,.44,1.17,6.93,6.93,0,0,1-.72,2.73h.08q.48,0,1.77-1.29a11.7,11.7,0,0,1,2.73-2.17,5.44,5.44,0,0,1,1.85-.48h.16a4.42,4.42,0,0,1,2.54.8,2.63,2.63,0,0,1,1.25,2l-.33,2.66c-.37,2.47-.59,4.05-.64,4.75-.05.53-.08,1.47-.08,2.81,0,2.79.21,4.48.64,5.07v.16a5,5,0,0,0,1.57-1.12,9.16,9.16,0,0,0,1.25-1.37,29.27,29.27,0,0,0,3.9-6.72q1.82-4.14,2-4.47a1.17,1.17,0,0,1,1.13-.64A.71.71,0,0,1,272.67,32.43Zm-21.88-3c0-.32-.13-.48-.4-.48s-.4.16-.4.48a3.06,3.06,0,0,0,.4,1.21c.05-.11.12-.23.2-.37a1.71,1.71,0,0,0,.2-.52Z"/><path class="cls-1" d="M279.11,46.67a3,3,0,0,1-.24,1.2,2.93,2.93,0,0,1-2.17,1.21,3.5,3.5,0,0,1-1.37.24A1.81,1.81,0,0,1,274.2,49a2.69,2.69,0,0,1-.88-1.45,5.56,5.56,0,0,1-.24-1.61,3,3,0,0,1,.08-.88,2.27,2.27,0,0,1,1.53-1.85,2.43,2.43,0,0,1,.72-.16,4.53,4.53,0,0,1,1.93.56,2.1,2.1,0,0,1,.89.48,3.65,3.65,0,0,1,.72,1.37A4.86,4.86,0,0,1,279.11,46.67ZM280.32,19a144,144,0,0,1-1.21,18.59,3.21,3.21,0,0,1-.72,1.85,1.64,1.64,0,0,1-1.29.56,2.4,2.4,0,0,1-1.25-.36,2.49,2.49,0,0,1-.92-.93,3.5,3.5,0,0,1-.65-1.73,18.51,18.51,0,0,1,0-2.37l1.85-30q0-.81,1.05-.81a3.2,3.2,0,0,1,1.21.28,1.54,1.54,0,0,1,.8.61,4.64,4.64,0,0,1,.64,2.25Q280.33,13,280.32,19Z"/></g></g></g></svg>