<svg xmlns="http://www.w3.org/2000/svg" viewBox="0 0 45.28 90.1"><defs><style>.cls-1{fill:#9ec17a;}.cls-2{fill:#f9b17f;}.cls-3{fill:#f2c6a8;}.cls-4{fill:#bcdc9e;}</style></defs><title>orange tulip</title><g id="Layer_2" data-name="Layer 2"><g id="Tulip3"><g id="orange_tulip" data-name="orange tulip"><path class="cls-1" d="M16.94,40.62l-.62,10.11S13.25,41.89,0,44.26c0,0,1.47,19.18,16,14.45L15.09,90.1h9S20.25,72,20.25,59.7c0,0,16.81,11,25-14,0,0-17.3-8.6-24.91,4.61l.49-9.74Z"/><path class="cls-2" d="M5.65,1.64S-3.07,42,19.88,41.61,38.53,10.4,36.33,0L26,9.7,21.09,2.57l-5.26,7.72Z"/><path class="cls-3" d="M5.65,14.14s-1.85,37.52,25.4,21C31.05,35.18,7,47.92,5.65,14.14Z"/><path class="cls-4" d="M20,54.57l25.28-8.82s-5.81,24.2-25,14Z"/><path class="cls-4" d="M0,44.26,15.83,55.32,16,58.71S2.21,65,0,44.26Z"/><path class="cls-3" d="M5.65,1.64s4.9,10.87,10.18,8.65Z"/><path class="cls-3" d="M21.09,2.57S21.6,8.88,26,9.7Z"/></g></g></g></svg>