<svg xmlns="http://www.w3.org/2000/svg" viewBox="0 0 87.69 118.87"><defs><style>.cls-1{fill:#efcae0;}.cls-2{fill:#b1e0e8;}.cls-3{fill:#f2ee83;}.cls-4{fill:#f3d7e8;opacity:0.52;}</style></defs><title>pink egg</title><g id="Layer_2" data-name="Layer 2"><g id="eggs"><g id="pink_egg" data-name="pink egg"><path class="cls-1" d="M84.6,82.67c-7.85,28.82-30.92,40.81-53.67,34.62s-36.56-28.24-28.72-57S39.93-5.51,62.68.69,92.45,53.86,84.6,82.67Z"/><polygon class="cls-2" points="25.3 35.59 23.32 21.33 25.98 18.28 28.48 28.91 40.62 21.58 47.26 34.44 58.66 26.17 66.25 39.29 75.35 29 82.47 40.74 85.53 35.17 86.4 39.56 82.89 49.27 74.74 35.84 65.56 46.2 57.4 32.11 45.82 40.51 39 27.31 25.3 35.59"/><polygon class="cls-2" points="6.59 74.76 3.56 55.69 5.85 49.74 10.71 66.11 26.47 56.59 35.08 73.27 49.86 62.55 59.72 79.56 71.51 66.22 80.75 81.45 86.63 73.36 85.59 79.94 81.29 92.51 70.72 75.08 58.82 88.53 48.22 70.25 33.2 81.14 24.37 64.02 6.59 74.76"/><circle class="cls-3" cx="14.58" cy="40.29" r="3.72"/><circle class="cls-3" cx="25.66" cy="45.41" r="3.72"/><circle class="cls-3" cx="38.96" cy="50.09" r="3.72"/><circle class="cls-3" cx="52.41" cy="54.28" r="3.72"/><circle class="cls-3" cx="66.55" cy="57.08" r="3.72"/><circle class="cls-3" cx="79.73" cy="58.03" r="3.72"/><path class="cls-3" d="M87.65,54.51h0a3.71,3.71,0,0,0,0,5.11Z"/><path class="cls-4" d="M62.68.69S99.17,129.37,7.62,101.32c0,0,10.85,14.39,23.31,16s26.6,5,44.14-14.79S86.64,41.72,86.64,41.72,82.54,6.67,62.68.69Z"/></g></g></g></svg>