<svg xmlns="http://www.w3.org/2000/svg" viewBox="0 0 58.18 114.03"><defs><style>.cls-1{fill:#9ec17a;}.cls-2{fill:#efcae0;}.cls-3{fill:#e8b5d3;}.cls-4{fill:#bcdc9e;}</style></defs><title>pink tulip</title><g id="Layer_2" data-name="Layer 2"><g id="Tulip1"><g id="pink_tulip" data-name="pink tulip"><path class="cls-1" d="M21.76,51.41,21,64.21S17,53,0,56C0,56,1.89,80.29,20.5,74.3L19.39,114H30.9S26,91.16,26,75.56c0,0,21.6,13.88,32.16-17.66,0,0-22.23-10.88-32,5.84l.63-12.33Z"/><path class="cls-2" d="M7.25,2.07s-11.19,51,18.29,50.59S49.51,13.17,46.67,0L33.43,12.28l-6.34-9L20.34,13Z"/><path class="cls-3" d="M7.25,17.9S4.89,65.39,39.89,44.53C39.89,44.53,9,60.65,7.25,17.9Z"/><path class="cls-4" d="M25.7,69.06,58.18,57.9S50.71,88.53,26,75.56Z"/><path class="cls-4" d="M0,56,20.34,70l.16,4.29S2.84,82.22,0,56Z"/><path class="cls-3" d="M7.25,2.07s6.31,13.76,13.09,11Z"/><path class="cls-3" d="M27.09,3.25s.66,8,6.34,9Z"/></g></g></g></svg>