<svg xmlns="http://www.w3.org/2000/svg" viewBox="0 0 86.76 116.82"><defs><style>.cls-1{fill:#a094c7;}.cls-2{fill:#afa7d2;}.cls-3{fill:#f2ee83;}.cls-4{fill:#a3d7be;}.cls-5{fill:#e1b8d7;}</style></defs><title>purple egg</title><g id="Layer_2" data-name="Layer 2"><g id="eggs"><g id="purple_egg" data-name="purple egg"><path class="cls-1" d="M84.11,58.48c8.09,28.21-5.19,50.06-27.47,56.45s-45.12-5.1-53.21-33.31S1.62,7.14,23.89.75,76,30.26,84.11,58.48Z"/><path class="cls-2" d="M23.89.75s96.27,89.55,5,112.64c0,0,16.44,6.56,27.72,1.54S81.55,105.57,86.2,80,65,23,65,23,43.63-4.35,23.89.75Z"/><polygon class="cls-3" points="10.27 49.13 1.33 38.15 2.02 34.23 9.54 41.9 16.01 29.55 28.14 36.97 33.5 24.22 46.58 31.36 48.98 18.09 60.95 24.32 60.68 18.08 63.65 21.33 65.64 31.28 51.94 24.14 49.52 37.53 35.47 29.85 30.02 42.81 17.57 35.19 10.27 49.13"/><circle class="cls-4" cx="3.66" cy="58.55" r="3.65"/><circle class="cls-4" cx="15.58" cy="57.21" r="3.65"/><circle class="cls-4" cx="29.15" cy="54.36" r="3.65"/><circle class="cls-4" cx="42.58" cy="51.02" r="3.65"/><circle class="cls-4" cx="55.89" cy="46.17" r="3.65"/><circle class="cls-4" cx="67.45" cy="40.25" r="3.65"/><path class="cls-4" d="M72.32,33.25h0A3.52,3.52,0,0,0,72.38,35a3.64,3.64,0,0,0,2.55,2.51Z"/><polygon class="cls-3" points="9.28 78.33 1.77 74.55 1.44 72.71 8.83 76.43 14.47 68.94 22.83 72.49 29.65 65.51 37.04 68.42 43.31 61.97 51.41 64.31 57 57.85 65.38 60.23 69.24 53.27 77.15 54.97 80.47 48.45 81.23 49.98 77.98 56.68 70.01 54.97 66.11 62 57.51 59.55 51.91 66.01 43.76 63.66 37.42 70.17 30.02 67.27 23.18 74.27 14.97 70.78 9.28 78.33"/><polygon class="cls-5" points="12.47 89.47 4.56 85.49 3.98 83.52 12.03 87.57 17.67 80.09 26.02 83.63 32.85 76.66 40.24 79.56 46.51 73.11 54.6 75.45 60.2 69 68.58 71.38 72.44 64.41 80.35 66.11 84.24 59.02 84.69 60.6 81.18 67.83 73.21 66.11 69.31 73.15 60.71 70.7 55.11 77.16 46.96 74.8 40.62 81.32 33.22 78.42 26.38 85.41 18.16 81.93 12.47 89.47"/><polygon class="cls-5" points="55 12.44 3.71 27.14 5.61 21.41 50.66 8.81 55 12.44"/><polygon class="cls-4" points="11.94 99.51 9.89 96.46 86.5 74.45 86.38 78.13 11.94 99.51"/><polygon class="cls-4" points="22.72 109.99 19.22 107.36 84.37 88.64 82.8 92.73 22.72 109.99"/></g></g></g></svg>