<svg xmlns="http://www.w3.org/2000/svg" viewBox="0 0 518.51 279.83"><defs><style>.cls-1{opacity:0.74;}.cls-2{fill:#f29988;}.cls-3{fill:#f4d484;}.cls-4{fill:#f3f1a4;}.cls-5{fill:#bcdc9e;}.cls-6{fill:#95d6f1;}.cls-7{fill:#a094c7;}</style></defs><title>Rainbow</title><g id="Layer_2" data-name="Layer 2"><g id="Rainbow"><g id="Rainbow-2" data-name="Rainbow" class="cls-1"><path class="cls-2" d="M287.71,56.35c110.2,18.23,186.44,114.18,169.94,213.89l57.93,9.59c10.31-62.3-6.81-125.31-48.22-177.42s-102.12-87.08-171-98.48S158.77,6.09,102.79,42.09,10.31,132.22,0,194.52l57.93,9.59C74.43,104.4,177.51,38.12,287.71,56.35Z"/><path class="cls-3" d="M283.56,78.09c99.24,16.42,168.16,101.2,153.63,189l52.17,8.63c9.08-54.85-6.54-110.42-44-156.46s-92.19-77-154.2-87.31-123.84,1.45-174.1,33-82.95,79.11-92,134l52.17,8.63C91.76,119.74,184.32,61.67,283.56,78.09Z"/><path class="cls-4" d="M280.49,96.63c87.68,14.51,148.58,89.42,135.74,167l46.1,7.63c8-48.47-5.78-97.56-38.85-138.24S342,64.92,287.24,55.85,177.82,57.14,133.41,85,60.12,154.9,52.1,203.37L98.2,211C111,133.43,192.81,82.12,280.49,96.63Z"/><path class="cls-5" d="M279.93,117.69c74.91,12.39,126.93,76.38,116,142.65l39.38,6.51c6.85-41.4-4.94-83.34-33.19-118.1S332.5,90.6,285.7,82.85s-93.48,1.1-131.41,24.9S91.68,167.47,84.83,208.87l39.38,6.52C135.17,149.12,205,105.29,279.93,117.69Z"/><path class="cls-6" d="M277.32,133.78c64.95,10.74,110.06,66.23,100.55,123.7L412,263.13c5.94-35.91-4.28-72.28-28.78-102.42s-60.34-50.43-100.93-57.14-81.05,1-113.95,21.59-54.29,51.78-60.23,87.69l34.15,5.65C151.78,161,212.36,123,277.32,133.78Z"/><path class="cls-7" d="M277.78,151.7c54.41,9,92.2,55.48,84.23,103.62l28.61,4.73c5-30.08-3.59-60.54-24.11-85.79S316,132,282,126.39s-67.9.8-95.46,18.09S141,187.86,136.06,217.93l28.6,4.73C172.62,174.53,223.37,142.69,277.78,151.7Z"/></g></g></g></svg>