<svg xmlns="http://www.w3.org/2000/svg" viewBox="0 0 58.18 135.05"><defs><style>.cls-1{fill:#bcdc9e;}.cls-2{fill:#9ec17a;}.cls-3{fill:#ee8ca1;}.cls-4{fill:#f2a5bb;}</style></defs><title>red tulip</title><g id="Layer_2" data-name="Layer 2"><g id="Tulip2"><g id="red_tulip" data-name="red tulip"><path class="cls-1" d="M25.7,74.48l32.48-12s-7.47,33-32.16,19Z"/><path class="cls-2" d="M21.76,55.44,21,69.24S17,57.17,0,60.4c0,0,1.89,26.19,20.5,19.73l-1.11,54.92H30.9S26,98.31,26,81.48c0,0,21.6,15,32.16-19,0,0-22.23-11.73-32,6.29l.63-13.29Z"/><path class="cls-3" d="M7.25,2.23s-11.19,55,18.29,54.56S49.51,14.2,46.67,0L33.43,13.24,27.09,3.51,20.34,14Z"/><path class="cls-4" d="M7.25,19.3S4.89,70.51,39.89,48C39.89,48,9,65.41,7.25,19.3Z"/><path class="cls-1" d="M0,60.4,20.34,75.5l.16,4.63S2.84,88.67,0,60.4Z"/><path class="cls-4" d="M7.25,2.23S13.56,17.07,20.34,14Z"/><path class="cls-4" d="M27.09,3.51s.66,8.61,6.34,9.73Z"/></g></g></g></svg>