<svg xmlns="http://www.w3.org/2000/svg" viewBox="0 0 41.33 61.76"><defs><style>.cls-1{fill:#9ec17a;}.cls-2{fill:#778e5b;}</style></defs><title>seedling1</title><g id="Layer_2" data-name="Layer 2"><g id="Seedling1"><g id="seedling1-2" data-name="seedling1"><path class="cls-1" d="M23.63,11.47c.84,8.18-10.54,20.22-10.54,26.15S14.6,54.91,14.6,54.91H19s-3.79-14.49-2.1-17.29S27,17.88,27.42,14.86,25.76.7,16.48.07,22.79,3.29,23.63,11.47Z"/><path class="cls-1" d="M21.23,29.2s5.35-17.75,20.1-14.34C41.33,14.86,41.18,39.21,21.23,29.2Z"/><path class="cls-1" d="M18.4,25.87S12.25,11.1,4.24,11.47C4.24,11.47-2.42,33,18.4,25.87Z"/><path class="cls-1" d="M14.6,54.91s-.77-12.37-7.47-13.82c0,0,6.28,11.27,2.09,13.82,0,0-.84-4.95-9.22-6.91,0,0,6.71,5.28,5,6.91S7.3,58.75,7.3,58.75h3.51l3.79,3,3.8-3,2.83,3,1.84-3,2.92,3s1.36-9.06,5.29-10.33c0,0-8.47.15-8.34,3.73,0,0,1.41-11,4.53-10.77C27.47,44.39,10.81,51.08,14.6,54.91Z"/><path class="cls-2" d="M21.23,29.2l20.1-14.34S41.07,38.87,21.23,29.2Z"/><path class="cls-2" d="M4.24,11.47,18.4,25.87S-.74,34.26,4.24,11.47Z"/></g></g></g></svg>