<svg xmlns="http://www.w3.org/2000/svg" viewBox="0 0 35.37 52.85"><defs><style>.cls-1{fill:#9ec17a;}.cls-2{fill:#778e5b;}</style></defs><title>seedling3</title><g id="Layer_2" data-name="Layer 2"><g id="Seedling3"><g id="seedling3-2" data-name="seedling3"><path class="cls-1" d="M20.22,9.82c.72,7-9,17.3-9,22.37S12.5,47,12.5,47h3.75s-3.24-12.4-1.8-14.8,8.65-16.89,9-19.47S22,.6,14.1.06,19.5,2.81,20.22,9.82Z"/><path class="cls-1" d="M18.17,25S22.74,9.8,35.37,12.72C35.37,12.72,35.23,33.55,18.17,25Z"/><path class="cls-1" d="M15.74,22.14S10.48,9.5,3.63,9.82C3.63,9.82-2.07,28.25,15.74,22.14Z"/><path class="cls-1" d="M12.5,47S11.84,36.4,6.1,35.16c0,0,5.38,9.65,1.79,11.83,0,0-.72-4.24-7.89-5.91,0,0,5.74,4.51,4.3,5.91s2,3.28,2,3.28h3l3.25,2.58,3.24-2.58,2.43,2.58,1.57-2.58,2.5,2.58S23.41,45.1,26.77,44c0,0-7.25.13-7.14,3.19,0,0,1.2-9.45,3.88-9.21C23.51,38,9.25,43.71,12.5,47Z"/><path class="cls-2" d="M18.17,25l17.2-12.27S35.15,33.26,18.17,25Z"/><path class="cls-2" d="M3.63,9.82,15.74,22.14S-.63,29.31,3.63,9.82Z"/></g></g></g></svg>