<svg xmlns="http://www.w3.org/2000/svg" viewBox="0 0 53.02 75.05"><defs><style>.cls-1{fill:#9ec17a;}.cls-2{fill:#778e5b;}</style></defs><title>seedling2</title><g id="Layer_2" data-name="Layer 2"><g id="Seedling2"><g id="seedling2-2" data-name="seedling2"><path class="cls-1" d="M22.71,13.94c-1.08,9.94,13.51,24.57,13.51,31.77s-1.93,21-1.93,21H28.65s4.87-17.61,2.71-21-13-24-13.52-27.65S20,.85,31.88.08,23.79,4,22.71,13.94Z"/><path class="cls-1" d="M25.78,35.48S18.92,13.91,0,18.06C0,18.06.2,47.64,25.78,35.48Z"/><path class="cls-1" d="M29.42,31.44s7.88-18,18.16-17.5C47.58,13.94,56.13,40.11,29.42,31.44Z"/><path class="cls-1" d="M34.29,66.73s1-15,9.59-16.8c0,0-8.07,13.7-2.69,16.8,0,0,1.07-6,11.83-8.4,0,0-8.61,6.41-6.45,8.4s-2.92,4.66-2.92,4.66h-4.5l-4.86,3.66-4.87-3.66-3.64,3.66-2.36-3.66-3.74,3.66s-1.75-11-6.79-12.56c0,0,10.87.19,10.7,4.54,0,0-1.8-13.42-5.81-13.09C17.78,53.94,39.16,62.07,34.29,66.73Z"/><path class="cls-2" d="M25.78,35.48,0,18.06S.33,47.23,25.78,35.48Z"/><path class="cls-2" d="M47.58,13.94,29.42,31.44S54,41.63,47.58,13.94Z"/></g></g></g></svg>