<svg xmlns="http://www.w3.org/2000/svg" viewBox="0 0 90.44 70.09"><defs><style>.cls-1{fill:#f199a3;}.cls-2{fill:#f3b5bf;}.cls-3{fill:#efcae0;}.cls-4{fill:#b1e0e8;}</style></defs><title>Top Shell</title><g id="Layer_2" data-name="Layer 2"><g id="Top_Shell" data-name="Top Shell"><g id="Top_Shell-2" data-name="Top Shell"><path class="cls-1" d="M6.91,69.85,22.63,53.92,36.55,69.31,49.34,54,65.43,70.09l8.81-17.17L90.07,68.16l.37-4.82C84,34.81,66.55.36,46.07.16,26.06,0,8,28,.67,55.71Z"/><path class="cls-2" d="M69.33,62.29S66.73,20.36,44.75.19c0,0,13.8-3.5,27.79,19.45,12.33,20.23,15.9,32.84,17.9,43.7l-.37,4.82L74.24,52.92Z"/><polygon class="cls-3" points="11.81 44.54 21.11 52.87 30.95 43.27 39.87 51.76 49.06 41.65 59.64 50.68 68.36 40.24 79.36 49.49 80.79 53.41 68.7 43.77 59.94 54.26 49.29 45.16 40 55.36 30.97 46.77 21.18 56.33 11.73 47.85 0 57.33 1.24 53.45 11.81 44.54"/><polygon class="cls-4" points="16.22 20.79 72.54 19.64 74.76 23.17 13.93 24.74 16.22 20.79"/><polyline class="cls-3" points="79.36 49.49 82.88 39.56 84.44 43.49 80.79 53.41"/></g></g></g></svg>