<svg xmlns="http://www.w3.org/2000/svg" viewBox="0 0 809.01 539.29"><defs><style>.cls-1{fill:#edeeca;}.cls-2{fill:#f3f3eb;}</style></defs><title>yellow cloud</title><g id="Layer_2" data-name="Layer 2"><g id="Clouds_Grass" data-name="Clouds/Grass"><g id="yellow_cloud" data-name="yellow cloud"><path class="cls-1" d="M0,539.29V38.39s79.51-93,164.9,10.5c0,0,27,37.5,0,103.49,0,0,121.34-48,113.85,79.5,0,0,86.89-96,140.82,16.5-10.48-165,179.77-139.5,172.28-12,0,0,82.4-88.5,131.84,27,0,0-3.14-150,85.32-136.5V539.29Z"/><path class="cls-2" d="M52.93,26.29s92.88-11,102.87,90C155.8,116.29,164.79,12.29,52.93,26.29Z"/><path class="cls-2" d="M435.44,204s28.64-75.13,109.36-42.51C544.8,161.53,469.36,113.26,435.44,204Z"/><path class="cls-2" d="M200.08,159.6s54.59-6.46,60.46,52.91C260.54,212.51,265.83,151.37,200.08,159.6Z"/><path class="cls-2" d="M754.22,175.54l0,.06Z"/><path class="cls-2" d="M809,138.33V133c-17.9,1.74-37.58,12.53-54.79,42.58C755.14,174,774,142.83,809,138.33Z"/></g></g></g></svg>