<svg xmlns="http://www.w3.org/2000/svg" viewBox="0 0 61.44 56.68"><defs><style>.cls-1{fill:#f2cb6c;}.cls-2{fill:#f3ed75;}.cls-3{fill:#edd95e;}.cls-4{fill:#91776b;}.cls-5{fill:#fff;}</style></defs><title>yellowflower</title><g id="Layer_2" data-name="Layer 2"><g id="flower"><g id="yellowflower"><path class="cls-1" d="M32.45,30.65S10.84,14.72,13.12,7.33,19.37,5.06,26.2,4.49s6.44-6.18,11.37-4C47.81,5.06,32.45,30.65,32.45,30.65Z"/><path class="cls-2" d="M31.61,26.49s26.84.39,29.29,7.73-3.77,5.48-9,9.91S50.25,52.9,45,54C34,56.23,31.61,26.49,31.61,26.49Z"/><path class="cls-1" d="M32.35,25.16s5.47,26.28-1.16,30.26S25,53,19.55,48.82s-8.91.3-11.12-4.63C3.84,34,32.35,25.16,32.35,25.16Z"/><path class="cls-3" d="M31.87,29.7S7.25,40.38,2,34.7,3.17,28.15,6.11,22,4,13.29,8.38,10.13C17.46,3.56,31.87,29.7,31.87,29.7Z"/><path class="cls-3" d="M31.72,30.08S37.49,3.87,45.17,2.94s4.62,4.79,7.91,10.8,8.26,3.38,8.26,8.77C61.34,33.72,31.72,30.08,31.72,30.08Z"/><circle class="cls-4" cx="31.67" cy="20.08" r="0.92"/><circle class="cls-4" cx="28.72" cy="20.61" r="0.92"/><circle class="cls-4" cx="26.15" cy="22.17" r="0.92"/><circle class="cls-4" cx="24.32" cy="24.55" r="0.92"/><circle class="cls-4" cx="23.47" cy="27.43" r="0.92"/><circle class="cls-4" cx="23.72" cy="30.43" r="0.92"/><circle class="cls-4" cx="25.04" cy="33.13" r="0.92"/><circle class="cls-4" cx="27.24" cy="35.17" r="0.92"/><circle class="cls-4" cx="30.03" cy="36.28" r="0.92"/><circle class="cls-4" cx="33.04" cy="36.31" r="0.92"/><circle class="cls-4" cx="35.85" cy="35.24" r="0.92"/><circle class="cls-4" cx="38.08" cy="33.24" r="0.92"/><circle class="cls-4" cx="39.45" cy="30.56" r="0.92"/><circle class="cls-4" cx="39.75" cy="27.57" r="0.92"/><circle class="cls-4" cx="38.95" cy="24.68" r="0.92"/><circle class="cls-4" cx="37.16" cy="22.26" r="0.92"/><circle class="cls-4" cx="34.62" cy="20.66" r="0.92"/><circle class="cls-4" cx="31.75" cy="28.64" r="3.59"/><path class="cls-5" d="M38,16.74S43.33,0,49.46,6.35C49.46,6.35,42.69,6.44,38,16.74Z"/><path class="cls-5" d="M2.85,28.64s-4.08,8.27,10.62,5.41C13.47,34.05,3,36,2.85,28.64Z"/><path class="cls-5" d="M31.61,43.52s1.87,12.7-5.65,8.63C26,52.15,33,61.65,31.61,43.52Z"/><path class="cls-5" d="M32.6,26.45S26.85,27,31,31.35C31,31.35,29.15,26.77,32.6,26.45Z"/><path class="cls-5" d="M21.82,4.92s-8.73-.16-3.74,5.91C18.08,10.83,9.6,3.69,21.82,4.92Z"/><path class="cls-5" d="M53.72,31.65s8.8,5.45-4.26,10.58C49.46,42.23,66.94,38.6,53.72,31.65Z"/></g></g></g></svg>